<svg width="331" height="96" viewBox="0 0 331 96" fill="none" xmlns="http://www.w3.org/2000/svg">
<path d="M22.1746 53.1989C21.8883 54.5392 26.2819 66.7692 26.5857 67.27C27.6971 66.3438 27.7999 65.9974 28.0395 65.3549C35.4764 45.4138 63.4449 41.3389 33.4611 27.8181C31.9571 27.6326 17.7976 13.94 17.7976 13.94L16.2299 15.9721C18.0758 17.9172 24.9956 25.1197 29.1788 28.5586C24.3666 36.1549 23.0962 43.9374 22.1734 50.515L8.50194 50.5215C8.06356 47.4512 1.20781 46.7103 1.21035 52.0817C1.2129 57.4532 8.06356 55.9714 8.50321 53.2053C11.9867 53.2023 18.2403 53.2023 22.1746 53.1989Z" fill="#3223D4"/>
<path d="M54.6277 77.5878C55.9669 77.8794 67.1099 73.9806 67.6119 73.6789C67.1007 72.4645 66.9277 72.3133 66.8067 71.771C46.5897 27.8178 29.9198 63.0099 28.5541 66.3439C28.438 67.27 21.2143 77.5785 15.3518 81.8099C15.7727 82.7196 17.3778 83.3856 17.3778 83.3856C19.3301 81.5473 25.0987 74.6054 28.5541 70.4358C36.1314 75.278 45.3699 76.6297 51.9438 77.5785L51.9438 87.8296C47.5158 89.3114 47.1454 95.7716 53.6281 95.7941C60.1109 95.8167 58.6291 88.3853 54.6277 87.8296C54.6383 84.3461 54.6156 81.5221 54.6277 77.5878Z" fill="#092D4E"/>
<path d="M46.5578 20.8665C45.2049 20.6467 36.032 25.2246 32.3276 25.5951C32.9028 26.7805 32.7917 26.5477 34.7355 27.2621C56.4064 35.2266 53.8133 60.7872 64.371 42.8207C68.6311 33.1891 80.0292 17.2601 85.5528 14.5578C86.4532 14.1173 83.4458 13.0923 83.4458 13.0923C81.5942 15.0319 74.2672 22.9142 71.0389 27.2621C63.2144 22.8304 55.8534 21.3301 49.2383 20.7328L49.2383 16.1487C56.0649 13.5478 54.1752 5.06449 47.3306 5.40587C40.4859 5.74725 40.0132 15.3105 46.2187 16.1487C46.3936 19.6279 46.3602 16.9372 46.5578 20.8665Z" fill="#6EB6DE"/>
<path d="M82.8892 4.24066C81.7519 5.32002 81.7098 7.13208 82.7892 8.26939L92.0855 18.0479C93.1649 19.1852 94.9769 19.2273 96.1142 18.148C97.2515 17.0686 97.2936 15.2565 96.2143 14.1192L86.9179 4.34071C85.8386 3.2034 84.0265 3.1613 82.8892 4.24066Z" fill="#6EB6DE"/>
<path d="M94.5053 15.4916L85.2089 5.71305C84.4547 4.91973 83.3414 4.66048 82.3567 4.94004C82.4945 4.68544 82.6702 4.45135 82.8892 4.24072C84.0265 3.16136 85.8386 3.20346 86.9179 4.34077L96.2143 14.1193C97.2936 15.2566 97.2515 17.0687 96.1142 18.148C95.7702 18.4731 95.3635 18.6942 94.9377 18.821C95.5093 17.7647 95.3769 16.4044 94.5053 15.4916Z" fill="#B9E0F5"/>
<path d="M65.8389 28.4258L52.9934 24.5439C51.9512 24.229 50.8498 24.5178 50.1196 25.1937C50.1185 24.921 50.1605 24.6482 50.2518 24.3751C50.7327 22.9692 52.3433 22.1852 53.8357 22.6376L66.6812 26.5194C68.1736 26.9717 69.005 28.4885 68.5241 29.8944C68.378 30.3185 68.1269 30.6851 67.814 30.9822C67.8094 29.8509 67.0414 28.7864 65.8389 28.4258Z" fill="#A2D4F0"/>
<path d="M87.9317 8.35588C88.1875 8.11612 87.6993 7.19361 86.8463 6.29788C85.9934 5.40216 85.0955 4.87428 84.8451 5.11697C84.5893 5.35673 85.0776 6.27923 85.9305 7.17495C86.7835 8.07068 87.6814 8.59857 87.9317 8.35588Z" fill="#EFF495"/>
<path d="M87.9317 8.35588C88.1875 8.11612 87.6993 7.19361 86.8463 6.29788C85.9934 5.40216 85.0955 4.87428 84.8451 5.11697C84.5893 5.35673 85.0776 6.27923 85.9305 7.17495C86.7835 8.07068 87.6814 8.59857 87.9317 8.35588Z" fill="#A2D4F0"/>
<path d="M82.8892 4.24066C81.7519 5.32002 81.7098 7.13208 82.7892 8.26939L92.0855 18.0479C93.1649 19.1852 94.9769 19.2273 96.1142 18.148C97.2515 17.0686 97.2936 15.2565 96.2143 14.1192L86.9179 4.34071C85.8386 3.2034 84.0265 3.1613 82.8892 4.24066Z" fill="#6EB6DE"/>
<path d="M94.5053 15.4916L85.2089 5.71305C84.4547 4.91973 83.3414 4.66048 82.3567 4.94004C82.4945 4.68544 82.6702 4.45135 82.8892 4.24072C84.0265 3.16136 85.8386 3.20346 86.9179 4.34077L96.2143 14.1193C97.2936 15.2566 97.2515 17.0687 96.1142 18.148C95.7702 18.4731 95.3635 18.6942 94.9377 18.821C95.5093 17.7647 95.3769 16.4044 94.5053 15.4916Z" fill="#B9E0F5"/>
<path d="M87.9317 8.35588C88.1875 8.11612 87.6993 7.19361 86.8463 6.29788C85.9934 5.40216 85.0955 4.87428 84.8451 5.11697C84.5893 5.35673 85.0776 6.27923 85.9305 7.17495C86.7835 8.07068 87.6814 8.59857 87.9317 8.35588Z" fill="#EFF495"/>
<path d="M87.9317 8.35588C88.1875 8.11612 87.6993 7.19361 86.8463 6.29788C85.9934 5.40216 85.0955 4.87428 84.8451 5.11697C84.5893 5.35673 85.0776 6.27923 85.9305 7.17495C86.7835 8.07068 87.6814 8.59857 87.9317 8.35588Z" fill="#A2D4F0"/>
<path d="M94.6091 16.9761C94.8649 16.7364 94.3767 15.8138 93.5237 14.9181C92.6708 14.0224 91.7729 13.4945 91.5226 13.7372C91.2668 13.977 91.755 14.8995 92.608 15.7952C93.4609 16.6909 94.3588 17.2188 94.6091 16.9761Z" fill="#A2D4F0"/>
<path d="M6.02634 82.1673C5.65367 81.8929 5.1044 81.688 4.66863 81.5299C4.16317 81.3463 3.7964 81.4538 3.30425 81.6156C3.17509 81.657 3.06859 81.9886 3.26331 81.9984C3.51549 82.0106 3.75958 81.9736 4.00898 82.0198C4.26082 82.0706 4.49051 82.1805 4.718 82.2974C5.09354 82.4874 5.46764 82.7195 5.89651 82.6118C6.03519 82.5772 6.16208 82.2674 6.02988 82.1684L6.02634 82.1673Z" fill="#275783"/>
<path d="M9.29414 79.1768C9.28285 78.9251 9.1236 78.7129 9.19783 78.4606C9.28521 78.1658 9.62544 77.9686 9.83928 77.7789C9.90829 77.7188 9.98159 77.5321 9.84164 77.5081C9.3559 77.4237 8.90782 77.9443 8.75136 78.3495C8.66053 78.5929 8.65143 78.8227 8.68041 79.0799C8.7062 79.2973 8.72465 79.3379 8.64831 79.5469C8.59852 79.6827 8.56431 79.7807 8.55807 79.9262C8.55521 80.0106 8.60214 80.1221 8.70401 80.1187C9.10195 80.0984 9.3072 79.5104 9.2917 79.1721L9.29414 79.1768Z" fill="#275783"/>
<path d="M12.0126 79.2892C12.1032 79.0341 12.0995 78.7577 12.1901 78.5026C12.2055 78.4531 12.2171 78.3404 12.1351 78.3421C11.8096 78.3538 11.7551 78.8682 11.6488 79.099C11.3877 79.6542 10.8913 79.9426 10.5324 80.4132C10.4663 80.5013 10.3916 80.7302 10.5631 80.7523C11.019 80.8081 11.422 80.3201 11.6574 79.9858C11.8097 79.7693 11.9278 79.5382 12.0161 79.2903L12.0126 79.2892Z" fill="#275783"/>
<path d="M14.0061 80.3405C14.0229 80.2487 13.9877 80.137 13.8781 80.1651C13.6882 80.2149 13.564 80.3781 13.4178 80.4996C13.2198 80.6632 13.011 80.8119 12.7839 80.9316C12.3865 81.1382 11.9666 81.2293 11.6925 81.6137C11.6426 81.6874 11.5781 81.9583 11.724 81.9879C12.1548 82.0747 12.7268 81.705 13.072 81.4667C13.4483 81.2032 13.9179 80.8134 14.0097 80.3415L14.0061 80.3405Z" fill="#275783"/>
<path d="M14.4133 82.1069C14.0206 82.4235 13.6651 82.7827 13.2569 83.0868C12.8983 83.3558 12.4717 83.5689 12.303 84.0014C12.2696 84.0842 12.2598 84.2285 12.3592 84.2709C12.7353 84.4338 13.2632 83.8682 13.5292 83.648C13.9377 83.3053 14.3431 82.9227 14.5846 82.443C14.6442 82.3257 14.6413 81.9215 14.4133 82.1069Z" fill="#275783"/>
<path d="M15.6704 84.3224C15.8163 84.2395 15.8796 83.8093 15.627 83.8862C15.0869 84.0526 14.5651 84.2478 14.1121 84.5962C13.7641 84.8685 13.329 85.2845 13.3592 85.7631C13.3632 85.838 13.4139 85.9623 13.5148 85.912C13.8648 85.7334 14.088 85.3255 14.4098 85.0878C14.8019 84.7981 15.2397 84.5613 15.6669 84.3213L15.6704 84.3224Z" fill="#275783"/>
<path d="M16.4424 85.6239C16.5035 85.414 16.277 85.3439 16.173 85.5172C15.9209 85.9433 15.6022 86.3216 15.2008 86.6162C14.8454 86.8746 14.3994 87.0002 14.0971 87.3254C14.01 87.4187 13.9593 87.6202 14.091 87.6958C14.5394 87.951 15.2109 87.4104 15.5292 87.1211C15.9784 86.7095 16.2781 86.2051 16.446 85.625L16.4424 85.6239Z" fill="#275783"/>
<path d="M15.8144 89.0437C16.1601 89.0421 16.5081 88.7194 16.777 88.5273C17.0897 88.3061 17.4635 88.0883 17.6493 87.7386C17.6865 87.6687 17.7664 87.4104 17.6169 87.3796C17.284 87.3153 16.9515 87.6002 16.6821 87.7689C16.3307 87.9897 15.945 88.1961 15.7112 88.5503C15.6249 88.6787 15.5707 89.0419 15.8155 89.0402L15.8144 89.0437Z" fill="#275783"/>
<path d="M16.3867 90.6905C16.7012 90.8771 17.1347 90.767 17.4717 90.6929C17.8799 90.6021 18.2709 90.4788 18.6381 90.2822C18.7725 90.2114 18.8926 89.7483 18.6436 89.7759C18.2554 89.8148 17.8685 89.9122 17.4833 89.9791C17.119 90.0408 16.745 90.084 16.4307 90.2853C16.3093 90.3641 16.2419 90.6069 16.3856 90.6941L16.3867 90.6905Z" fill="#275783"/>
<path d="M17.5714 93.4149C17.3397 93.0485 16.9257 92.8699 16.5953 92.597C16.3138 92.3664 16.0725 91.9932 15.7009 91.9285C15.5797 91.9065 15.5268 92.1151 15.5368 92.1957C15.6227 92.9203 16.7523 93.7935 17.4803 93.6465C17.5596 93.6284 17.6138 93.4784 17.5714 93.4149Z" fill="#275783"/>
<path d="M13.8445 93.1532C13.7395 92.7406 13.7763 92.2208 13.5877 91.8405C13.5204 91.7072 13.378 91.8415 13.3435 91.9278C13.1687 92.405 13.2772 92.9814 13.4082 93.4602C13.5403 93.9354 13.7246 94.4927 14.1067 94.8242C14.2381 94.9386 14.3741 94.6743 14.3425 94.5637C14.2008 94.0817 13.9652 93.6403 13.841 93.1521L13.8445 93.1532Z" fill="#275783"/>
<path d="M11.9442 91.7003C11.9546 91.529 11.7785 91.459 11.6677 91.5915C11.4212 91.8991 11.2981 92.272 11.1654 92.6381C11.0359 92.9936 10.888 93.3588 10.8563 93.7368C10.8441 93.8765 10.9989 93.94 11.0879 93.8279C11.3205 93.5276 11.4613 93.1602 11.6085 92.8102C11.7589 92.4495 11.9245 92.0898 11.9524 91.699L11.9442 91.7003Z" fill="#275783"/>
<path d="M10.9232 89.5616C10.4356 89.6085 10.0468 90.1629 9.78175 90.5307C9.42113 91.0318 9.1906 91.5886 9.05124 92.1892C8.99117 92.4459 9.27386 92.4597 9.35348 92.2401C9.52806 91.7512 9.77257 91.2995 10.0965 90.8918C10.376 90.5401 10.7654 90.2845 10.9972 89.8987C11.0448 89.8203 11.0986 89.5461 10.9267 89.5627L10.9232 89.5616Z" fill="#275783"/>
<path d="M9.8518 87.9116C9.46084 87.4959 8.80466 88.0373 8.48364 88.3102C7.95206 88.7623 7.36294 89.2624 7.13275 89.9435C7.09551 90.0638 7.17446 90.2472 7.30025 90.1039C7.70409 89.6511 8.11468 89.2392 8.60118 88.8701C8.97696 88.5831 9.42656 88.4586 9.79442 88.1847C9.86941 88.1304 9.92493 87.9885 9.8518 87.9116Z" fill="#275783"/>
<path d="M7.67173 86.3604C7.28676 86.2762 6.88283 86.6165 6.57554 86.82C6.18046 87.0816 5.79566 87.3852 5.48458 87.7387C5.37707 87.8605 5.36469 88.2639 5.61198 88.1039C5.95634 87.8808 6.28604 87.63 6.63882 87.4174C6.98124 87.2131 7.40606 87.0809 7.66532 86.7695C7.727 86.6955 7.84706 86.3953 7.67282 86.3569L7.67173 86.3604Z" fill="#275783"/>
<path d="M6.3323 84.6739C5.69144 84.1886 4.53569 84.6025 3.96358 85.0227C3.86323 85.0963 3.77982 85.466 3.99729 85.3898C4.37063 85.2611 4.73605 85.1454 5.134 85.1251C5.49327 85.1045 5.85676 85.1704 6.20903 85.0972C6.34199 85.0686 6.45852 84.7673 6.33584 84.675L6.3323 84.6739Z" fill="#275783"/>
<path d="M7.20592 80.799C7.37258 80.9747 7.56983 80.6131 7.5646 80.4796C7.54699 79.9351 7.25234 79.4212 6.96604 78.9681C6.71967 78.5739 6.38828 78.0409 5.91678 77.9104C5.83185 77.8841 5.7679 78.0156 5.78467 78.0867C5.91619 78.5889 6.25946 79.0209 6.50818 79.4701C6.74225 79.8916 6.87614 80.4488 7.20592 80.799Z" fill="#275783"/>
<path d="M6.88221 80.7802C4.92206 82.4149 5.92422 85.742 7.89845 86.768C9.87268 87.794 9.67477 90.0245 11.8656 91.4782C14.06 92.933 16.3248 93.5215 16.7009 91.0786C17.077 88.6356 14.5599 87.4843 14.5599 87.4843C14.5599 87.4843 14.4418 85.8112 13.2448 84.9677C12.0489 84.1206 12.6032 81.5156 10.4497 80.6552C8.94516 80.0537 7.78797 80.0213 6.87867 80.7791L6.88221 80.7802Z" fill="#F2B3D2"/>
<path d="M7.41746 81.4189C6.64861 82.0612 6.62174 82.9875 6.67457 83.4808C6.79017 84.5481 7.45378 85.5988 8.28565 86.0308C9.50148 86.6631 10.031 87.6336 10.5422 88.5751C10.9889 89.3998 11.4111 90.178 12.3312 90.7886C13.9431 91.8575 14.978 92.0344 15.4087 91.8458C15.6466 91.7411 15.8089 91.4423 15.8816 90.9568C16.1561 89.1804 14.2936 88.2821 14.2155 88.2463L13.7716 88.0391L13.733 87.5501C13.733 87.5501 13.6183 86.2543 12.7687 85.654C12.0405 85.1378 11.7929 84.3089 11.5519 83.5091C11.2312 82.4404 10.9752 81.764 10.1467 81.4338C8.51448 80.7813 7.85382 81.0615 7.4199 81.4236L7.41746 81.4189ZM15.7848 93.4746C14.4014 93.8724 12.6614 93.0042 11.4097 92.1747C10.146 91.3337 9.57741 90.2891 9.07481 89.3696C8.62951 88.5531 8.27925 87.9057 7.51378 87.5098C6.17468 86.8122 5.19536 85.3031 5.01698 83.6619C4.86599 82.2579 5.34802 80.9762 6.34705 80.1414C7.81464 78.9205 9.56752 79.4087 10.7577 79.8857C12.3935 80.5394 12.8241 81.9795 13.1432 83.0283C13.3087 83.5837 13.4677 84.1098 13.7294 84.2917C14.798 85.049 15.1854 86.2779 15.3218 86.9522C16.4033 87.605 17.8528 89.0735 17.5251 91.2096C17.3175 92.5568 16.6245 93.1295 16.0778 93.3675C15.9791 93.4106 15.8826 93.4467 15.7813 93.4735L15.7848 93.4746Z" fill="#092D4E"/>
<path d="M7.15432 81.1164C5.31389 82.6524 6.2543 85.7782 8.11124 86.7446C9.96818 87.711 9.77785 89.8043 11.8403 91.1717C13.8992 92.538 16.0308 93.0931 16.3844 90.7983C16.7379 88.5035 14.3735 87.4226 14.3735 87.4226C14.3735 87.4226 14.2623 85.8526 13.139 85.059C12.0158 84.2653 12.5346 81.8123 10.5124 81.0041C9.09762 80.4382 8.01315 80.4089 7.15785 81.1175L7.15432 81.1164Z" fill="#146AB9"/>
<path d="M16.0065 91.8059C15.3485 91.6139 14.6198 91.2371 13.8959 90.7571C11.8369 89.3908 12.0248 87.2929 10.1668 86.33C8.30875 85.3671 7.36945 82.2378 9.20987 80.7018C9.23633 80.6789 9.26169 80.6596 9.29169 80.6379C8.446 80.4886 7.74473 80.6244 7.15425 81.1164C5.31383 82.6524 6.25423 85.7782 8.11118 86.7446C9.96812 87.711 9.77779 89.8043 11.8402 91.1717C13.5128 92.2827 15.2288 92.8526 16.0065 91.8059Z" fill="#275783"/>
<path d="M8.93622 85.3442C8.96318 85.3448 8.99124 85.3419 9.0193 85.3389C9.67549 85.2861 10.1781 85.2284 10.6139 84.5722C11.0723 83.8803 10.8234 82.066 9.55988 81.7758C9.03825 81.657 8.53843 81.6806 8.12119 81.8384C7.81256 83.011 8.17934 84.3693 8.93622 85.3442Z" fill="#D65B6A"/>
<path d="M10.614 84.5721C11.0724 83.8803 10.8235 82.066 9.55999 81.7757C8.30001 81.4866 7.16473 82.0348 7.06405 83.2872C6.96337 84.5396 8.10471 85.4125 9.01941 85.3389C9.6756 85.286 10.1782 85.2283 10.614 84.5721Z" fill="#BF434C"/>
<path d="M10.614 84.5721C11.0724 83.8803 10.8235 82.066 9.55999 81.7757C8.30001 81.4866 7.16473 82.0348 7.06405 83.2872C6.96337 84.5396 8.10471 85.4125 9.01941 85.3389C9.6756 85.286 10.1782 85.2283 10.614 84.5721Z" fill="#092D4E"/>
<path d="M6.02634 82.1673C5.65367 81.8929 5.1044 81.688 4.66863 81.5299C4.16317 81.3463 3.7964 81.4538 3.30425 81.6156C3.17509 81.657 3.06859 81.9886 3.26331 81.9984C3.51549 82.0106 3.75958 81.9736 4.00898 82.0198C4.26082 82.0706 4.49051 82.1805 4.718 82.2974C5.09354 82.4874 5.46764 82.7195 5.89651 82.6118C6.03519 82.5772 6.16208 82.2674 6.02988 82.1684L6.02634 82.1673Z" fill="#275783"/>
<path d="M9.29414 79.1768C9.28285 78.9251 9.1236 78.7129 9.19783 78.4606C9.28521 78.1658 9.62544 77.9686 9.83928 77.7789C9.90829 77.7188 9.98159 77.5321 9.84164 77.5081C9.3559 77.4237 8.90782 77.9443 8.75136 78.3495C8.66053 78.5929 8.65143 78.8227 8.68041 79.0799C8.7062 79.2973 8.72465 79.3379 8.64831 79.5469C8.59852 79.6827 8.56431 79.7807 8.55807 79.9262C8.55521 80.0106 8.60214 80.1221 8.70401 80.1187C9.10195 80.0984 9.3072 79.5104 9.2917 79.1721L9.29414 79.1768Z" fill="#275783"/>
<path d="M10.9232 89.5616C10.4356 89.6085 10.0468 90.1629 9.78175 90.5307C9.42113 91.0318 9.1906 91.5886 9.05124 92.1892C8.99117 92.4459 9.27386 92.4597 9.35348 92.2401C9.52806 91.7512 9.77257 91.2995 10.0965 90.8918C10.376 90.5401 10.7654 90.2845 10.9972 89.8987C11.0448 89.8203 11.0986 89.5461 10.9267 89.5627L10.9232 89.5616Z" fill="#275783"/>
<path d="M9.8518 87.9116C9.46084 87.4959 8.80466 88.0373 8.48364 88.3102C7.95206 88.7623 7.36294 89.2624 7.13275 89.9435C7.09551 90.0638 7.17446 90.2472 7.30025 90.1039C7.70409 89.6511 8.11468 89.2392 8.60118 88.8701C8.97696 88.5831 9.42656 88.4586 9.79442 88.1847C9.86941 88.1304 9.92493 87.9885 9.8518 87.9116Z" fill="#275783"/>
<path d="M7.67173 86.3604C7.28676 86.2762 6.88283 86.6165 6.57554 86.82C6.18046 87.0816 5.79566 87.3852 5.48458 87.7387C5.37707 87.8605 5.36469 88.2639 5.61198 88.1039C5.95634 87.8808 6.28604 87.63 6.63882 87.4174C6.98124 87.2131 7.40606 87.0809 7.66532 86.7695C7.727 86.6955 7.84706 86.3953 7.67282 86.3569L7.67173 86.3604Z" fill="#275783"/>
<path d="M6.3323 84.6739C5.69144 84.1886 4.53569 84.6025 3.96358 85.0227C3.86323 85.0963 3.77982 85.466 3.99729 85.3898C4.37063 85.2611 4.73605 85.1454 5.134 85.1251C5.49327 85.1045 5.85676 85.1704 6.20903 85.0972C6.34199 85.0686 6.45852 84.7673 6.33584 84.675L6.3323 84.6739Z" fill="#275783"/>
<path d="M7.20592 80.799C7.37258 80.9747 7.56983 80.6131 7.5646 80.4796C7.54699 79.9351 7.25234 79.4212 6.96604 78.9681C6.71967 78.5739 6.38828 78.0409 5.91678 77.9104C5.83185 77.8841 5.7679 78.0156 5.78467 78.0867C5.91619 78.5889 6.25946 79.0209 6.50818 79.4701C6.74225 79.8916 6.87614 80.4488 7.20592 80.799Z" fill="#275783"/>
<path d="M6.88221 80.7802C4.92206 82.4149 5.92422 85.742 7.89845 86.768C9.87268 87.794 9.67477 90.0245 11.8656 91.4782C14.06 92.933 16.3248 93.5215 16.7009 91.0786C17.077 88.6356 14.5599 87.4843 14.5599 87.4843C14.5599 87.4843 14.4418 85.8112 13.2448 84.9677C12.0489 84.1206 12.6032 81.5156 10.4497 80.6552C8.94516 80.0537 7.78797 80.0213 6.87867 80.7791L6.88221 80.7802Z" fill="#F2B3D2"/>
<path d="M7.41746 81.4189C6.64861 82.0612 6.62174 82.9875 6.67457 83.4808C6.79017 84.5481 7.45378 85.5988 8.28565 86.0308C9.50148 86.6631 10.031 87.6336 10.5422 88.5751C10.9889 89.3998 11.4111 90.178 12.3312 90.7886C13.9431 91.8575 14.978 92.0344 15.4087 91.8458C15.6466 91.7411 15.8089 91.4423 15.8816 90.9568C16.1561 89.1804 14.2936 88.2821 14.2155 88.2463L13.7716 88.0391L13.733 87.5501C13.733 87.5501 13.6183 86.2543 12.7687 85.654C12.0405 85.1378 11.7929 84.3089 11.5519 83.5091C11.2312 82.4404 10.9752 81.764 10.1467 81.4338C8.51448 80.7813 7.85382 81.0615 7.4199 81.4236L7.41746 81.4189ZM15.7848 93.4746C14.4014 93.8724 12.6614 93.0042 11.4097 92.1747C10.146 91.3337 9.57741 90.2891 9.07481 89.3696C8.62951 88.5531 8.27925 87.9057 7.51378 87.5098C6.17468 86.8122 5.19536 85.3031 5.01698 83.6619C4.86599 82.2579 5.34802 80.9762 6.34705 80.1414C7.81464 78.9205 9.56752 79.4087 10.7577 79.8857C12.3935 80.5394 12.8241 81.9795 13.1432 83.0283C13.3087 83.5837 13.4677 84.1098 13.7294 84.2917C14.798 85.049 15.1854 86.2779 15.3218 86.9522C16.4033 87.605 17.8528 89.0735 17.5251 91.2096C17.3175 92.5568 16.6245 93.1295 16.0778 93.3675C15.9791 93.4106 15.8826 93.4467 15.7813 93.4735L15.7848 93.4746Z" fill="#092D4E"/>
<path d="M7.15432 81.1164C5.31389 82.6524 6.2543 85.7782 8.11124 86.7446C9.96818 87.711 9.77785 89.8043 11.8403 91.1717C13.8992 92.538 16.0308 93.0931 16.3844 90.7983C16.7379 88.5035 14.3735 87.4226 14.3735 87.4226C14.3735 87.4226 14.2623 85.8526 13.139 85.059C12.0158 84.2653 12.5346 81.8123 10.5124 81.0041C9.09762 80.4382 8.01315 80.4089 7.15785 81.1175L7.15432 81.1164Z" fill="#146AB9"/>
<path d="M16.0065 91.8059C15.3485 91.6139 14.6198 91.2371 13.8959 90.7571C11.8369 89.3908 12.0248 87.2929 10.1668 86.33C8.30875 85.3671 7.36945 82.2378 9.20987 80.7018C9.23633 80.6789 9.26169 80.6596 9.29169 80.6379C8.446 80.4886 7.74473 80.6244 7.15425 81.1164C5.31383 82.6524 6.25423 85.7782 8.11118 86.7446C9.96812 87.711 9.77779 89.8043 11.8402 91.1717C13.5128 92.2827 15.2288 92.8526 16.0065 91.8059Z" fill="#275783"/>
<path d="M50.4374 73.4336C49.4337 73.5917 48.2197 73.5578 46.9479 73.3896C43.3301 72.9097 42.2754 70.1242 39.1789 70.035C36.0823 69.9459 32.8704 66.5369 34.3863 63.4558C34.4076 63.4106 34.4297 63.3705 34.4564 63.3245C33.2271 63.6517 32.3694 64.2536 31.8826 65.2411C30.3667 68.3222 33.5779 71.726 36.6751 71.8203C39.7724 71.9146 40.8209 74.6958 44.4442 75.1748C47.3838 75.566 50.0446 75.2418 50.4374 73.4336Z" fill="#275783"/>
<path d="M8.93622 85.3442C8.96318 85.3448 8.99124 85.3419 9.0193 85.3389C9.67549 85.2861 10.1781 85.2284 10.6139 84.5722C11.0723 83.8803 10.8234 82.066 9.55988 81.7758C9.03825 81.657 8.53843 81.6806 8.12119 81.8384C7.81256 83.011 8.17934 84.3693 8.93622 85.3442Z" fill="#D65B6A"/>
<path d="M10.614 84.5721C11.0724 83.8803 10.8235 82.066 9.55999 81.7757C8.30001 81.4866 7.16473 82.0348 7.06405 83.2872C6.96337 84.5396 8.10471 85.4125 9.01941 85.3389C9.6756 85.286 10.1782 85.2283 10.614 84.5721Z" fill="#BF434C"/>
<path d="M10.614 84.5721C11.0724 83.8803 10.8235 82.066 9.55999 81.7757C8.30001 81.4866 7.16473 82.0348 7.06405 83.2872C6.96337 84.5396 8.10471 85.4125 9.01941 85.3389C9.6756 85.286 10.1782 85.2283 10.614 84.5721Z" fill="#092D4E"/>
<path d="M12.3584 87.1673C11.8955 87.0589 11.6043 86.5965 11.7127 86.1337C11.821 85.6709 12.2834 85.3797 12.7463 85.488C13.2091 85.5964 13.5003 86.0588 13.3919 86.5216C13.2836 86.9845 12.8212 87.2756 12.3584 87.1673Z" fill="#1586EE"/>
<path d="M14.6446 90.543C14.2643 90.4563 14.0253 90.076 14.1131 89.6921C14.1998 89.3117 14.5801 89.0727 14.964 89.1605C15.3443 89.2472 15.5833 89.6275 15.4955 90.0114C15.4088 90.3917 15.0285 90.6308 14.6446 90.543Z" fill="#1586EE"/>
<path d="M12.2629 90.1818C11.8825 90.0951 11.6435 89.7148 11.7313 89.3309C11.818 88.9506 12.1983 88.7116 12.5822 88.7994C12.9626 88.8861 13.2016 89.2664 13.1138 89.6503C13.0271 90.0306 12.6468 90.2696 12.2629 90.1818Z" fill="#1586EE"/>
<path d="M10.2874 88.3334C10.0377 88.2755 9.88587 88.0269 9.94266 87.7807C10.0005 87.5311 10.2492 87.3793 10.4953 87.436C10.745 87.4939 10.8968 87.7426 10.84 87.9887C10.7821 88.2383 10.5335 88.3902 10.2874 88.3334Z" fill="#1586EE"/>
<path d="M5.85996 7.4018C5.70404 7.87996 5.94035 8.29591 6.31997 8.58501C6.35987 8.60628 6.40145 8.63086 6.44465 8.65046C6.62818 8.84806 6.68617 8.84769 6.61362 8.6477C6.57767 8.72414 6.45229 8.80448 6.40308 8.87935C6.25539 9.09569 6.18582 9.35128 6.18419 9.60973C6.17943 10.1482 6.44741 10.5938 6.94257 10.8158C7.22668 10.9415 7.54826 10.9693 7.83568 11.0933C8.03838 11.1814 8.19853 11.3494 8.42331 11.2684C8.54398 11.2278 8.5861 11.0818 8.60029 10.9707C8.65069 10.5711 8.44994 10.2742 8.07947 10.1176C7.56781 9.90387 6.56674 10.0927 6.93206 9.2089C7.04299 8.94476 7.22062 8.74645 7.04137 8.44279C6.96265 8.31242 6.84793 8.25021 6.71167 8.18649C6.30785 7.99695 6.02378 7.87952 5.90792 7.3899C5.89942 7.35682 5.8697 7.37192 5.86158 7.39682L5.85996 7.4018Z" fill="#3223D4"/>
<path d="M8.05628 5.81186C8.05151 5.84337 8.04676 5.87489 8.04199 5.9064C8.03263 5.99426 8.13207 6.0019 8.13646 5.91241C8.13792 5.88258 8.13771 5.84944 8.14247 5.81794C8.14691 5.73673 8.0657 5.73228 8.05628 5.81186Z" fill="#34526A"/>
<path d="M8.08628 5.84645C7.61744 6.35481 7.78634 7.35767 8.51808 7.53016C8.86321 7.61239 9.22973 7.41782 9.56555 7.59621C9.83987 7.74352 9.97121 8.06737 10.1731 8.28474C10.5184 8.65359 10.934 8.86625 11.3042 8.46622C11.4062 8.35621 11.4222 8.01979 11.2495 7.95796C10.9306 7.83745 10.6702 7.79939 10.4184 7.54921C10.2167 7.34841 10.0593 7.09596 9.80983 6.94849C9.57367 6.81087 9.37488 6.81217 9.10332 6.83383C8.93609 6.84818 8.72949 6.92408 8.55863 6.89041C8.21025 6.81813 8.00723 6.42682 8.23212 6.10892C8.3142 5.99241 8.23597 5.68312 8.08297 5.84813L8.08628 5.84645Z" fill="#6EB6DE"/>
<path d="M9.74903 5.74948C10.0468 5.43607 10.6218 5.44722 10.9449 5.71516C11.3464 6.04719 11.1149 6.36844 11.0264 6.77491C10.9202 7.25274 11.18 8.2136 11.8521 7.89277C12.0256 7.8088 12.0834 7.5301 11.9813 7.37006C11.911 7.26449 11.6248 7.06922 11.6043 6.97989C11.5737 6.85418 11.7374 6.56317 11.753 6.41397C11.7951 6.01443 11.7013 5.59258 11.4507 5.27116C10.9127 4.58052 10.036 4.79334 9.57141 5.44083C9.47125 5.579 9.5648 5.95114 9.74908 5.75776L9.74903 5.74948Z" fill="#6EB6DE"/>
<path d="M11.2518 3.50643C11.3082 3.51103 11.3157 3.38672 11.2593 3.38212C11.203 3.37752 11.1955 3.50182 11.2518 3.50643Z" fill="#34526A"/>
<path d="M12.812 2.66784C12.7904 2.65804 12.7638 2.64663 12.7422 2.63683C12.6774 2.60743 12.618 2.63764 12.5753 2.69259C12.2632 3.10881 12.5999 3.66492 13.0999 3.61858C13.4012 3.5901 13.7421 3.27972 14.0315 3.45676C14.4058 3.68625 14.134 4.17344 14.0963 4.50006C14.0727 4.69073 14.2567 4.9546 14.4309 4.7414C14.8056 4.27673 14.84 3.45312 14.4642 2.98342C14.2938 2.77081 14.0445 2.6482 13.7681 2.69308C13.6026 2.71901 13.4607 2.79946 13.3087 2.86838C13.1633 2.93394 12.8115 3.10025 12.8645 2.83648C12.8757 2.78505 12.8718 2.69562 12.812 2.66784Z" fill="#3223D4"/>
<path d="M17.0269 0.667166C16.8736 1.54291 15.4532 1.20096 15.1875 2.12549C15.1049 2.41264 15.1529 2.65421 15.2574 2.92522C15.3652 3.20285 15.529 3.4188 15.5476 3.73346C15.5625 3.9918 15.4897 4.24907 15.4731 4.50266C15.467 4.58885 15.5198 4.80719 15.6569 4.74996C16.564 4.36796 16.084 3.17827 15.8877 2.5384C15.6995 2.38887 15.7417 2.2511 16.0042 2.12181C16.1113 2.02999 16.2268 1.9464 16.3455 1.86942C16.5616 1.72222 16.7979 1.62292 16.9621 1.40648C17.151 1.15674 17.1992 0.932763 17.0831 0.655195C17.0663 0.62217 17.0299 0.62407 17.0219 0.66554L17.0269 0.667166Z" fill="#6EB6DE"/>
<path d="M1.84977 10.8109C2.1896 10.5884 2.64989 10.5456 3.00742 10.7504C3.59612 11.0911 3.39391 11.5845 3.47696 12.124C3.5167 12.3739 3.55324 12.6421 3.77304 12.8129C4.0178 13.0002 4.15304 12.9065 4.40771 12.8353C4.70536 12.7505 4.88342 12.6185 5.20116 12.8185C5.35919 12.9169 5.44792 13.0588 5.61418 13.1488C5.78542 13.2405 5.90794 12.9746 5.91043 12.8487C5.91243 12.3947 5.73632 12.0645 5.29282 11.8868C5.03702 11.7841 4.84017 11.8302 4.58182 11.8451C4.52053 11.8472 4.39212 11.9706 4.33571 11.9577C4.09511 11.9013 4.0399 11.5637 3.97249 11.3902C3.7973 10.9473 3.6972 10.5868 3.20882 10.3862C2.69385 10.1742 2.21802 10.3745 1.82097 10.7134C1.78968 10.7417 1.79867 10.8494 1.85145 10.8142L1.84977 10.8109Z" fill="#3223D4"/>
<path d="M0.535343 12.9915C0.464367 13.7922 0.917018 14.6093 1.6663 14.9308C1.84907 15.0124 2.03974 15.036 2.2386 15.043C2.54848 15.0559 2.75123 15.1523 3.03194 15.2631C3.4206 15.4147 3.70022 15.3598 3.88489 14.9709C3.95841 14.8131 3.94363 14.5796 3.78891 14.4795C3.43782 14.2466 2.82475 13.9805 2.3977 14.0397C2.11797 14.0779 1.87013 14.179 1.58309 14.1129C1.06542 13.9937 0.711347 13.5586 0.737551 13.0051C0.746267 12.8179 0.555649 12.8025 0.538649 12.9899L0.535343 12.9915Z" fill="#6EB6DE"/>
<path d="M4.06393 16.2535C3.72622 16.5457 3.50539 16.4709 3.40637 16.0226C3.47393 15.9675 3.54648 15.914 3.6174 15.8655C3.77078 15.7584 3.93254 15.6679 4.0759 15.5494C4.31481 15.349 4.48383 15.101 4.55307 14.7958C4.65783 14.3478 4.54371 13.3628 3.89178 13.4863C3.75113 13.5121 3.72958 13.764 3.76336 13.8632C3.83607 14.0881 4.06004 14.3898 3.98701 14.6222C3.91554 14.8413 3.56207 15.0043 3.39397 15.1396C3.09237 15.3802 2.84587 15.6883 2.83028 16.091C2.78989 17.009 3.81868 17.2591 4.18764 16.4234C4.22359 16.3469 4.15928 16.1386 4.06729 16.2601L4.06393 16.2535Z" fill="#3223D4"/>
<path d="M6.86353 17.2409C6.49939 17.2929 6.11998 17.2904 5.85617 16.9757C5.41364 16.4402 5.78774 15.8844 6.07321 15.4568C6.32257 15.0807 6.52072 14.7266 6.52927 14.261C6.54064 13.7192 6.11978 12.4413 5.37304 12.7626C5.18469 12.8417 5.16001 13.1202 5.24554 13.2803C5.37299 13.5147 5.53757 13.6015 5.70123 13.8008C6.10202 14.287 5.70767 14.7865 5.47709 15.2486C5.24159 15.7173 5.11264 16.2649 5.23201 16.786C5.39567 17.4923 6.29323 18.1955 6.93028 17.5685C7.01257 17.4851 7.04061 17.2132 6.86185 17.2376L6.86353 17.2409Z" fill="#3223D4"/>
<path d="M9.37363 14.4694C9.02536 14.4137 8.70448 14.2401 8.40017 14.0665C8.19065 13.9486 7.81515 13.7821 7.68613 13.5609C7.52025 13.2754 7.79354 13.0118 7.90296 12.7692C7.99277 12.5699 8.04935 12.3541 8.04129 12.1338C8.02591 11.8092 7.87795 11.4772 7.54267 11.3816C7.21237 11.2877 6.9635 11.4848 6.90432 11.8099C6.87877 11.9559 6.91147 12.3963 7.17918 12.2935C7.34111 12.2279 7.45664 12.1608 7.44332 12.4045C7.43444 12.5669 7.27013 12.775 7.21984 12.9377C7.1225 13.2531 7.11151 13.5995 7.29725 13.8832C7.73902 14.5563 8.67476 14.5087 9.3693 14.5671C9.41239 14.5702 9.41841 14.4757 9.37694 14.4677L9.37363 14.4694Z" fill="#6EB6DE"/>
<path d="M13.5951 17.5367C12.9737 17.7776 12.172 17.541 11.8187 16.9684C11.4888 16.4338 11.7815 16.0939 11.8957 15.5663C11.9568 15.2859 11.9022 15.0395 11.7383 14.8069C11.5209 14.5019 11.1403 14.0554 10.7508 14.0331C10.5619 14.0211 10.524 14.3145 10.5646 14.4435C10.6627 14.751 10.7778 14.8712 11.0146 15.0999C11.3097 15.3863 11.3247 15.4077 11.2195 15.7812C11.0914 16.216 11.1145 16.6947 11.2796 17.1177C11.6856 18.1455 12.7964 18.2791 13.6394 17.7302C13.6988 17.6917 13.6909 17.4963 13.5984 17.535L13.5951 17.5367Z" fill="#3223D4"/>
<path d="M17.2565 13.2368C16.7345 13.7223 16.0616 14.1972 15.3689 14.4121C14.7588 14.6017 14.448 14.4562 14.0652 13.9319C13.9432 13.7654 13.869 13.5704 13.7206 13.4173C13.1502 12.8345 12.1596 12.8559 11.7535 13.5859C11.6798 13.7189 11.7169 14.0616 11.9319 14.0105C12.7308 13.8164 13.1257 13.6448 13.6907 14.4214C13.9431 14.771 14.101 15.0897 14.5587 15.1729C15.6667 15.3744 16.6503 14.031 17.2868 13.3211C17.3099 13.2928 17.291 13.1985 17.2515 13.2352L17.2565 13.2368Z" fill="#3223D4"/>
<path d="M19.8729 12.7923C19.5927 12.2574 19.0598 11.8301 18.4413 11.7579C18.2507 11.7343 18.1115 11.7386 17.9466 11.8473C17.5787 12.0883 17.6017 12.5587 17.0914 11.7999C16.9709 11.6201 16.9464 11.4165 16.7731 11.2553C16.5314 11.0332 16.1746 10.9444 15.874 10.8354C15.3061 10.6336 14.4249 10.1424 13.8756 10.5171C13.7486 10.6024 13.7205 10.866 13.8042 10.9897C14.1337 11.4746 14.6273 11.4565 15.1927 11.5224C15.501 11.5568 15.9695 11.5057 16.2537 11.6314C16.7338 11.8403 16.7432 12.2677 17.0287 12.5922C17.2256 12.8162 17.4678 12.8677 17.7169 12.6954C18.0533 12.4662 18.1359 12.1708 18.6349 12.2288C19.1008 12.2788 19.4724 12.6094 19.8172 12.8954C19.8739 12.9414 19.893 12.8319 19.8746 12.7956L19.8729 12.7923Z" fill="#3223D4"/>
<path d="M20.0386 8.2534C19.7172 8.75749 19.2518 9.28902 18.6431 9.43216C18.0261 9.57536 17.8435 9.26509 17.4828 8.84168C17.0671 8.35069 16.4049 8.16781 15.8389 8.51776C15.7053 8.59816 15.6955 8.88153 15.8319 8.96181C16.0681 9.10772 16.252 9.10982 16.5225 9.17598C16.9589 9.28247 17.0234 9.52393 17.3019 9.80209C17.5721 10.072 17.8416 10.2426 18.2441 10.2416C19.3326 10.2494 19.7313 9.13679 20.0937 8.31269C20.1133 8.26949 20.0746 8.18525 20.0369 8.25011L20.0386 8.2534Z" fill="#6EB6DE"/>
<path d="M19.1457 0.664697C19.1141 1.1586 18.9225 1.74633 18.3161 1.7387C17.8223 1.73198 17.7913 1.29482 17.5508 0.993218C17.3654 0.759177 17.1291 0.604981 16.8193 0.600379C15.9792 0.590958 15.417 1.75765 15.2906 2.44104C15.2714 2.55051 15.3228 2.81525 15.4861 2.70318C15.9578 2.38035 16.3067 1.00631 17.0541 1.29135C17.363 1.40862 17.4273 1.87042 17.6771 2.06759C17.8236 2.18426 18.0046 2.24603 18.187 2.26141C19.0953 2.33168 19.513 1.35481 19.354 0.592104C19.318 0.415071 19.1499 0.54208 19.144 0.661401L19.1457 0.664697Z" fill="#6EB6DE"/>
<path d="M17.6459 2.8666C17.8776 2.57847 18.3901 2.40946 18.7329 2.64247C19.0145 3.14758 18.9816 3.4344 18.6275 3.50629C18.525 3.53347 18.4208 3.55735 18.3182 3.57624C17.9393 3.6483 17.5483 3.65582 17.2034 3.85191C16.6075 4.19212 16.2484 5.01454 16.3422 5.68158C16.3613 5.80902 16.4747 5.92591 16.5799 5.79765C16.8183 5.51446 16.8604 5.12319 17.0988 4.83171C17.3831 4.4836 17.7391 4.44815 18.1561 4.3775C18.7204 4.27772 19.271 4.11839 19.4426 3.49932C19.5623 3.05619 19.4094 2.48562 19.0069 2.23312C18.4546 1.89047 17.8923 2.28846 17.5872 2.7593C17.5577 2.80754 17.5901 2.94483 17.6509 2.86822L17.6459 2.8666Z" fill="#3223D4"/>
<path d="M2.6146 19.8466C1.53746 18.7901 1.51445 17.044 2.57432 15.9652L13.3143 4.98892C14.3708 3.91178 16.1185 3.89207 17.1957 4.94864C18.2761 6.00353 18.2925 7.75291 17.2376 8.83335L6.49767 19.8096C5.44279 20.8901 3.69508 20.9098 2.61296 19.8516L2.6146 19.8466Z" fill="#3223D4"/>
<path d="M6.53379 18.0003L17.2737 7.024C17.5535 6.74053 17.7519 6.41121 17.8837 6.05747C17.7519 5.65078 17.5224 5.26462 17.1972 4.94368C16.1168 3.88879 14.3724 3.90681 13.3158 4.98395L2.57584 15.9603C2.29605 16.2437 2.09444 16.5747 1.96586 16.9268C2.09775 17.3335 2.32723 17.7196 2.65239 18.0406C3.72953 19.0971 5.47723 19.0774 6.53379 18.0003Z" fill="#558FFF"/>
<path d="M10.108 11.2391C9.67949 10.8211 9.67332 10.1303 10.0913 9.70182L14.3439 5.35499C14.7619 4.92649 15.4527 4.92031 15.8812 5.33832C16.3097 5.75632 16.3158 6.44713 15.8978 6.87564L11.6453 11.2225C11.2273 11.651 10.5365 11.6571 10.108 11.2391Z" fill="#95C4FC"/>
<path d="M8.8682 13.9427C8.38274 14.1895 7.79333 13.9945 7.54662 13.509C7.29992 13.0236 7.49486 12.4342 7.97702 12.1891C8.45918 11.9441 9.05189 12.1374 9.29692 12.6195C9.54195 13.1017 9.35036 13.6977 8.8682 13.9427Z" fill="#85A0FF"/>
<path d="M1.99431 14.1597C1.5716 14.3745 1.0536 14.2056 0.838778 13.7829C0.623957 13.3602 0.792871 12.8422 1.21558 12.6274C1.6383 12.4125 2.15629 12.5815 2.37112 13.0042C2.58594 13.4269 2.41702 13.9449 1.99431 14.1597Z" fill="#85A0FF"/>
<path d="M5.91418 15.7181C5.6731 15.8406 5.37593 15.7465 5.25174 15.5021C5.12755 15.2577 5.22337 14.9639 5.46776 14.8397C5.71214 14.7155 6.006 14.8113 6.13019 15.0557C6.25439 15.3001 6.15856 15.5939 5.91418 15.7181Z" fill="#95FCFC"/>
<path d="M10.0896 15.5284C9.78579 15.6828 9.41722 15.5627 9.26281 15.2588C9.10841 14.955 9.22859 14.5864 9.53242 14.432C9.83624 14.2776 10.2048 14.3978 10.3592 14.7016C10.5136 15.0055 10.3934 15.374 10.0896 15.5284Z" fill="#85A0FF"/>
<path d="M11.6129 13.3748C11.3719 13.4973 11.0747 13.4031 10.9505 13.1588C10.8263 12.9144 10.9221 12.6205 11.1665 12.4963C11.4109 12.3721 11.7048 12.4679 11.829 12.7123C11.9531 12.9567 11.8573 13.2506 11.6129 13.3748Z" fill="#85A0FF"/>
<path d="M15.213 9.3386C15.0314 9.43091 14.8073 9.35781 14.7166 9.17948C14.626 9.00115 14.6974 8.77371 14.8791 8.68141C15.0607 8.5891 15.2848 8.66219 15.3771 8.84382C15.4694 9.02546 15.3947 9.24629 15.213 9.3386Z" fill="#95FCFC"/>
<path d="M13.4736 11.8765C13.1698 12.0309 12.8012 11.9107 12.6468 11.6069C12.4924 11.303 12.6126 10.9345 12.9164 10.7801C13.2202 10.6257 13.5888 10.7458 13.7432 11.0497C13.8976 11.3535 13.7774 11.7221 13.4736 11.8765Z" fill="#85A0FF"/>
<path d="M17.0737 7.84044C16.8326 7.96295 16.5355 7.86881 16.4113 7.62443C16.2871 7.38005 16.3829 7.08618 16.6273 6.96199C16.8717 6.83779 17.1655 6.93362 17.2897 7.178C17.4139 7.42239 17.3181 7.71625 17.0737 7.84044Z" fill="#85A0FF"/>
<path d="M12.4575 7.97998C12.8208 7.79537 13.2641 7.93993 13.4487 8.3032C13.6333 8.66647 13.4887 9.10975 13.1255 9.29436C12.7622 9.47897 12.3189 9.33443 12.1343 8.97116C11.9497 8.60789 12.0942 8.16459 12.4575 7.97998Z" fill="#95FCFC"/>
<path d="M14.2022 5.99205C14.4432 5.86954 14.7404 5.96368 14.8646 6.20806C14.9888 6.45244 14.893 6.74631 14.6486 6.87051C14.4042 6.9947 14.1103 6.89887 13.9862 6.65449C13.862 6.4101 13.9578 6.11625 14.2022 5.99205Z" fill="#95FCFC"/>
<ellipse cx="45" cy="9.5" rx="2" ry="2.5" fill="#B9E0F5"/>
<ellipse cx="4" cy="51" rx="2" ry="3" fill="#558FFF"/>
<ellipse cx="54.5" cy="91.5" rx="1.5" ry="0.5" fill="#275783"/>
<ellipse cx="28.2527" cy="50.9704" rx="2.96355" ry="7.03843" transform="rotate(-3.5946 28.2527 50.9704)" fill="#558FFF"/>
<circle cx="49" cy="47" r="9" fill="#1BE33B"/>
<circle cx="34" cy="40" r="2" fill="#1BE33B"/>
<circle cx="39.5" cy="61.5" r="2.5" fill="#1BE33B"/>
<circle cx="58" cy="62" r="2" fill="#1BE33B"/>
<circle cx="35.5" cy="48.5" r="1.5" fill="#1BE33B"/>
<ellipse cx="60.5" cy="39" rx="1.5" ry="1" fill="#1BE33B"/>
<circle cx="51.5" cy="32.5" r="2.5" fill="#1BE33B"/>
<ellipse cx="62" cy="55.5" rx="1" ry="1.5" fill="#1BE33B"/>
<circle cx="48.5" cy="63.5" r="1.5" fill="#1BE33B"/>
<circle cx="63.5" cy="50.5" r="0.5" fill="#1BE33B"/>
<ellipse cx="40.5" cy="26" rx="2.5" ry="2" fill="#96E8A3"/>
<path d="M69.1484 57C68.7422 57 68.6367 56.7422 68.832 56.2266L74.668 40.9102C74.8477 40.4336 75.1055 40.1953 75.4414 40.1953H77.082C77.418 40.1953 77.6758 40.4336 77.8555 40.9102L83.6914 56.2266C83.8867 56.7422 83.7812 57 83.375 57H82.1797C81.7656 57 81.4844 56.8086 81.3359 56.4258L79.8711 52.5469H72.6523L71.1875 56.4258C71.0391 56.8086 70.7578 57 70.3438 57H69.1484ZM73.3906 50.625H79.1328L77.3398 45.9375C77.1758 45.5 77.0117 45.0156 76.8477 44.4844C76.6914 43.9531 76.5039 43.1992 76.2852 42.2227H76.2383C76.0195 43.1992 75.8281 43.9531 75.6641 44.4844C75.5078 45.0156 75.3477 45.5 75.1836 45.9375L73.3906 50.625ZM86.1289 57C85.7773 57 85.6016 56.8242 85.6016 56.4727V45.2227C85.6016 44.8711 85.7773 44.6953 86.1289 44.6953H87.1133C87.4648 44.6953 87.6406 44.8711 87.6406 45.2227V46.1602H87.6875C88.1953 45.5977 88.7422 45.1797 89.3281 44.9062C89.9141 44.6328 90.6445 44.4961 91.5195 44.4961C92.9414 44.4961 93.9609 44.8984 94.5781 45.7031C95.2031 46.5 95.5156 47.5938 95.5156 48.9844V56.4727C95.5156 56.8242 95.3398 57 94.9883 57H93.9805C93.6289 57 93.4531 56.8242 93.4531 56.4727V49.5469C93.4531 48.0156 93.1992 47.0469 92.6914 46.6406C92.1836 46.2266 91.5391 46.0195 90.7578 46.0195C89.7422 46.0195 88.9727 46.3242 88.4492 46.9336C87.9258 47.5352 87.6641 48.5703 87.6641 50.0391V56.4727C87.6641 56.8242 87.4883 57 87.1367 57H86.1289ZM98.2227 46.2422C97.8711 46.2422 97.6953 46.1055 97.6953 45.832V45.1055C97.6953 44.832 97.8711 44.6953 98.2227 44.6953H99.6055V43.6406C99.6055 43.4844 99.6445 43.3359 99.7227 43.1953L100.543 41.707C100.691 41.4336 100.812 41.2969 100.906 41.2969H101.316C101.551 41.2969 101.668 41.4336 101.668 41.707V44.6953H104.164C104.516 44.6953 104.691 44.832 104.691 45.1055V45.832C104.691 46.1055 104.516 46.2422 104.164 46.2422H101.668V53.707C101.668 54.5273 101.789 55.0625 102.031 55.3125C102.281 55.5547 102.578 55.6758 102.922 55.6758C103.188 55.6758 103.504 55.5977 103.871 55.4414C104.246 55.2852 104.504 55.1523 104.645 55.043C104.785 54.9336 104.895 54.9688 104.973 55.1484L105.359 56.0508C105.422 56.207 105.375 56.332 105.219 56.4258C104.914 56.6055 104.469 56.7812 103.883 56.9531C103.297 57.1172 102.711 57.1992 102.125 57.1992C101.312 57.1992 100.688 56.9062 100.25 56.3203C99.8203 55.7344 99.6055 54.9062 99.6055 53.8359V46.2422H98.2227ZM108.23 57C107.879 57 107.703 56.8242 107.703 56.4727V45.2227C107.703 44.8711 107.879 44.6953 108.23 44.6953H109.238C109.59 44.6953 109.766 44.8711 109.766 45.2227V56.4727C109.766 56.8242 109.59 57 109.238 57H108.23ZM108.23 42.4688C107.879 42.4688 107.703 42.293 107.703 41.9414V40.9336C107.703 40.582 107.879 40.4062 108.23 40.4062H109.238C109.59 40.4062 109.766 40.582 109.766 40.9336V41.9414C109.766 42.293 109.59 42.4688 109.238 42.4688H108.23ZM113.621 57C113.27 57 113.094 56.8242 113.094 56.4727V45.2227C113.094 44.8711 113.27 44.6953 113.621 44.6953H114.605C114.957 44.6953 115.133 44.8711 115.133 45.2227V46.1602H115.18C115.688 45.5977 116.238 45.1797 116.832 44.9062C117.426 44.6328 117.996 44.4961 118.543 44.4961C119.551 44.4961 120.324 44.75 120.863 45.2578C121.41 45.7578 121.762 46.2617 121.918 46.7695H121.965C122.395 46.1289 122.938 45.5898 123.594 45.1523C124.25 44.7148 124.949 44.4961 125.691 44.4961C126.934 44.4961 127.871 44.8984 128.504 45.7031C129.137 46.5 129.453 47.5938 129.453 48.9844V56.4727C129.453 56.8242 129.277 57 128.926 57H127.918C127.566 57 127.391 56.8242 127.391 56.4727V49.6641C127.391 48.1328 127.199 47.1445 126.816 46.6992C126.434 46.2461 125.844 46.0195 125.047 46.0195C124.266 46.0195 123.613 46.3555 123.09 47.0273C122.566 47.6914 122.305 48.6953 122.305 50.0391V56.4727C122.305 56.8242 122.129 57 121.777 57H120.77C120.418 57 120.242 56.8242 120.242 56.4727V49.6641C120.242 48.1328 120.051 47.1445 119.668 46.6992C119.285 46.2461 118.695 46.0195 117.898 46.0195C117.117 46.0195 116.465 46.3242 115.941 46.9336C115.418 47.5352 115.156 48.5703 115.156 50.0391V56.4727C115.156 56.8242 114.98 57 114.629 57H113.621ZM133.285 57C132.934 57 132.758 56.8242 132.758 56.4727V45.2227C132.758 44.8711 132.934 44.6953 133.285 44.6953H134.293C134.645 44.6953 134.82 44.8711 134.82 45.2227V56.4727C134.82 56.8242 134.645 57 134.293 57H133.285ZM133.285 42.4688C132.934 42.4688 132.758 42.293 132.758 41.9414V40.9336C132.758 40.582 132.934 40.4062 133.285 40.4062H134.293C134.645 40.4062 134.82 40.582 134.82 40.9336V41.9414C134.82 42.293 134.645 42.4688 134.293 42.4688H133.285ZM137.48 50.8477C137.48 49.0117 137.934 47.4961 138.84 46.3008C139.754 45.0977 141.148 44.4961 143.023 44.4961C144.289 44.4961 145.254 44.7227 145.918 45.1758C146.59 45.6211 147.074 46.0781 147.371 46.5469C147.535 46.8047 147.5 47.0117 147.266 47.168L146.527 47.6484C146.293 47.8125 146.059 47.707 145.824 47.332C145.598 46.9727 145.277 46.6641 144.863 46.4062C144.457 46.1484 143.844 46.0195 143.023 46.0195C141.953 46.0195 141.125 46.4141 140.539 47.2031C139.953 47.9922 139.66 49.207 139.66 50.8477C139.66 52.4883 139.953 53.7031 140.539 54.4922C141.125 55.2812 141.953 55.6758 143.023 55.6758C143.891 55.6758 144.555 55.5117 145.016 55.1836C145.477 54.8477 145.812 54.4844 146.023 54.0938C146.227 53.7266 146.457 53.6211 146.715 53.7773L147.5 54.2461C147.734 54.3867 147.77 54.5977 147.605 54.8789C147.41 55.2148 146.965 55.6875 146.27 56.2969C145.582 56.8984 144.5 57.1992 143.023 57.1992C141.148 57.1992 139.754 56.6016 138.84 55.4062C137.934 54.2031 137.48 52.6836 137.48 50.8477ZM150.699 57C150.348 57 150.172 56.8242 150.172 56.4727V45.2227C150.172 44.8711 150.348 44.6953 150.699 44.6953H151.684C152.035 44.6953 152.211 44.8711 152.211 45.2227V46.6289H152.258C152.633 45.9258 153.074 45.3945 153.582 45.0352C154.09 44.6758 154.723 44.4961 155.48 44.4961C155.98 44.4961 156.332 44.5391 156.535 44.625C156.715 44.6953 156.781 44.8125 156.734 44.9766L156.465 45.9375C156.426 46.0781 156.324 46.1328 156.16 46.1016C155.887 46.0469 155.629 46.0195 155.387 46.0195C154.473 46.0195 153.719 46.4336 153.125 47.2617C152.531 48.082 152.234 49.2031 152.234 50.625V56.4727C152.234 56.8242 152.059 57 151.707 57H150.699ZM157.965 50.8477C157.965 49.0117 158.449 47.4961 159.418 46.3008C160.395 45.0977 161.82 44.4961 163.695 44.4961C165.57 44.4961 166.992 45.0977 167.961 46.3008C168.938 47.4961 169.426 49.0117 169.426 50.8477C169.426 52.6836 168.938 54.2031 167.961 55.4062C166.992 56.6016 165.57 57.1992 163.695 57.1992C161.82 57.1992 160.395 56.6016 159.418 55.4062C158.449 54.2031 157.965 52.6836 157.965 50.8477ZM160.145 50.8477C160.145 52.4883 160.469 53.7031 161.117 54.4922C161.766 55.2812 162.625 55.6758 163.695 55.6758C164.766 55.6758 165.625 55.2812 166.273 54.4922C166.922 53.7031 167.246 52.4883 167.246 50.8477C167.246 49.207 166.922 47.9922 166.273 47.2031C165.625 46.4141 164.766 46.0195 163.695 46.0195C162.625 46.0195 161.766 46.4141 161.117 47.2031C160.469 47.9922 160.145 49.207 160.145 50.8477ZM172.613 57C172.262 57 172.086 56.8242 172.086 56.4727V40.2305C172.086 39.8789 172.262 39.7031 172.613 39.7031H173.621C173.973 39.7031 174.148 39.8789 174.148 40.2305V45.4453C174.148 45.6875 174.141 45.9258 174.125 46.1602H174.148C174.578 45.6445 175.062 45.2383 175.602 44.9414C176.141 44.6445 176.859 44.4961 177.758 44.4961C179.32 44.4961 180.508 45.1367 181.32 46.418C182.133 47.6914 182.539 49.168 182.539 50.8477C182.539 52.5273 182.133 54.0078 181.32 55.2891C180.508 56.5625 179.32 57.1992 177.758 57.1992C176.859 57.1992 176.141 57.0508 175.602 56.7539C175.062 56.457 174.578 56.0508 174.148 55.5352H174.125L174.055 56.4727C174.031 56.8242 173.879 57 173.598 57H172.613ZM174.148 52.1953C174.148 53.3672 174.426 54.2422 174.98 54.8203C175.543 55.3906 176.246 55.6758 177.09 55.6758C178.277 55.6758 179.117 55.2305 179.609 54.3398C180.109 53.4492 180.359 52.2852 180.359 50.8477C180.359 49.4102 180.109 48.2461 179.609 47.3555C179.117 46.4648 178.277 46.0195 177.09 46.0195C176.246 46.0195 175.543 46.3086 174.98 46.8867C174.426 47.457 174.148 48.3281 174.148 49.5V52.1953ZM185.738 57C185.387 57 185.211 56.8242 185.211 56.4727V45.2227C185.211 44.8711 185.387 44.6953 185.738 44.6953H186.746C187.098 44.6953 187.273 44.8711 187.273 45.2227V56.4727C187.273 56.8242 187.098 57 186.746 57H185.738ZM185.738 42.4688C185.387 42.4688 185.211 42.293 185.211 41.9414V40.9336C185.211 40.582 185.387 40.4062 185.738 40.4062H186.746C187.098 40.4062 187.273 40.582 187.273 40.9336V41.9414C187.273 42.293 187.098 42.4688 186.746 42.4688H185.738ZM189.934 53.7188C189.934 52.3281 190.582 51.3086 191.879 50.6602C193.184 50.0117 195.129 49.6328 197.715 49.5234V48.7266C197.715 47.9922 197.547 47.3594 197.211 46.8281C196.883 46.2891 196.227 46.0195 195.242 46.0195C194.617 46.0195 194.117 46.082 193.742 46.207C193.367 46.3242 193.023 46.4844 192.711 46.6875C192.406 46.8828 192.113 47.1367 191.832 47.4492C191.621 47.6836 191.422 47.6953 191.234 47.4844L190.625 46.7812C190.453 46.5859 190.512 46.3516 190.801 46.0781C191.215 45.6875 191.617 45.3945 192.008 45.1992C192.398 45.0039 192.883 44.8398 193.461 44.707C194.047 44.5664 194.641 44.4961 195.242 44.4961C196.875 44.4961 198.039 44.918 198.734 45.7617C199.43 46.5977 199.777 47.7461 199.777 49.207V56.4727C199.777 56.8242 199.602 57 199.25 57H198.195C197.891 57 197.738 56.8242 197.738 56.4727V55.8984H197.715C197.098 56.3828 196.492 56.7227 195.898 56.918C195.312 57.1055 194.656 57.1992 193.93 57.1992C192.648 57.1992 191.66 56.8945 190.965 56.2852C190.277 55.668 189.934 54.8125 189.934 53.7188ZM192.066 53.7656C192.066 54.25 192.168 54.6406 192.371 54.9375C192.574 55.2266 192.855 55.4141 193.215 55.5C193.574 55.5781 193.949 55.6172 194.34 55.6172C194.941 55.6172 195.512 55.5586 196.051 55.4414C196.59 55.3242 197.145 55.0156 197.715 54.5156V51.0586C196.137 51.1758 195.012 51.3203 194.34 51.4922C193.668 51.6562 193.121 51.9453 192.699 52.3594C192.277 52.7656 192.066 53.2344 192.066 53.7656ZM203.645 57C203.293 57 203.117 56.8242 203.117 56.4727V41.8477C203.117 41.6914 203.156 41.543 203.234 41.4023L204.055 39.9141C204.203 39.6406 204.324 39.5039 204.418 39.5039H204.828C205.062 39.5039 205.18 39.6406 205.18 39.9141V56.4727C205.18 56.8242 205.004 57 204.652 57H203.645ZM217.414 57C217.023 57 216.828 56.7852 216.828 56.3555V40.8398C216.828 40.4102 217.023 40.1953 217.414 40.1953H223.074C225.332 40.1953 226.965 40.6172 227.973 41.4609C228.988 42.3047 229.496 43.418 229.496 44.8008C229.496 46.0195 229.086 47.043 228.266 47.8711C227.453 48.6992 226.293 49.1758 224.785 49.3008V49.3242C225.582 49.918 226.109 50.3711 226.367 50.6836C226.625 50.9883 226.914 51.4023 227.234 51.9258L229.883 56.2266C230.203 56.7422 230.133 57 229.672 57H228.336C227.969 57 227.695 56.8477 227.516 56.543L225.078 52.3594C224.727 51.7578 224.223 51.168 223.566 50.5898C222.91 50.0117 222.094 49.7227 221.117 49.7227H219.078V56.3555C219.078 56.7852 218.883 57 218.492 57H217.414ZM219.078 47.8008H222.465C223.988 47.8008 225.16 47.6016 225.98 47.2031C226.801 46.7969 227.211 45.9492 227.211 44.6602C227.211 43.6758 226.836 43.0078 226.086 42.6562C225.336 42.2969 224.316 42.1172 223.027 42.1172H219.078V47.8008ZM232.168 50.8477C232.168 48.9102 232.652 47.3672 233.621 46.2188C234.59 45.0703 235.977 44.4961 237.781 44.4961C239.281 44.4961 240.523 45.0234 241.508 46.0781C242.5 47.125 242.996 48.8008 242.996 51.1055C242.996 51.457 242.836 51.6328 242.516 51.6328H234.348C234.48 53.1406 234.887 54.1914 235.566 54.7852C236.246 55.3711 237.016 55.6641 237.875 55.6641C238.781 55.6641 239.477 55.5117 239.961 55.207C240.445 54.9023 240.801 54.6016 241.027 54.3047C241.277 53.9766 241.52 53.9141 241.754 54.1172L242.445 54.7148C242.625 54.8711 242.625 55.0859 242.445 55.3594C242.297 55.5859 241.871 55.9492 241.168 56.4492C240.473 56.9492 239.375 57.1992 237.875 57.1992C235.922 57.1992 234.48 56.625 233.551 55.4766C232.629 54.3281 232.168 52.7852 232.168 50.8477ZM234.301 50.1094H240.922C240.891 49.0156 240.609 48.0586 240.078 47.2383C239.547 46.4102 238.766 45.9961 237.734 45.9961C236.828 45.9961 236.059 46.3008 235.426 46.9102C234.793 47.5117 234.418 48.5781 234.301 50.1094ZM245.223 55.8516C244.98 55.625 244.93 55.4141 245.07 55.2188L245.598 54.4805C245.77 54.2461 246.023 54.2578 246.359 54.5156C246.82 54.8672 247.332 55.1484 247.895 55.3594C248.465 55.5703 249.113 55.6758 249.84 55.6758C250.27 55.6758 250.652 55.625 250.988 55.5234C251.324 55.4141 251.617 55.2148 251.867 54.9258C252.125 54.6367 252.254 54.25 252.254 53.7656C252.254 53.4844 252.191 53.2188 252.066 52.9688C251.949 52.7188 251.762 52.5195 251.504 52.3711C251.254 52.2148 251.008 52.0938 250.766 52.0078C250.367 51.8594 249.969 51.7383 249.57 51.6445C249.18 51.543 248.664 51.3906 248.023 51.1875C247.594 51.0547 247.188 50.8672 246.805 50.625C246.422 50.375 246.086 50.0391 245.797 49.6172C245.516 49.1953 245.375 48.6133 245.375 47.8711C245.375 47.1133 245.605 46.4609 246.066 45.9141C246.527 45.3672 247.105 44.9961 247.801 44.8008C248.496 44.5977 249.172 44.4961 249.828 44.4961C250.797 44.4961 251.574 44.6094 252.16 44.8359C252.754 45.0547 253.266 45.3164 253.695 45.6211C253.945 45.8008 253.98 46.0078 253.801 46.2422L253.273 46.9453C253.109 47.1719 252.855 47.1641 252.512 46.9219C252.223 46.7188 251.812 46.5273 251.281 46.3477C250.75 46.168 250.285 46.0781 249.887 46.0781C249.395 46.0781 248.973 46.1328 248.621 46.2422C248.27 46.3516 247.984 46.5391 247.766 46.8047C247.547 47.0703 247.438 47.3828 247.438 47.7422C247.438 48.0156 247.48 48.2617 247.566 48.4805C247.652 48.6914 247.812 48.8867 248.047 49.0664C248.281 49.2461 248.609 49.3906 249.031 49.5C249.688 49.6719 250.285 49.8281 250.824 49.9688C251.371 50.1094 251.863 50.2812 252.301 50.4844C252.871 50.75 253.309 51.043 253.613 51.3633C253.926 51.6836 254.141 52.0312 254.258 52.4062C254.375 52.7734 254.434 53.1836 254.434 53.6367C254.434 54.4727 254.184 55.1797 253.684 55.7578C253.191 56.3359 252.641 56.7227 252.031 56.918C251.422 57.1055 250.688 57.1992 249.828 57.1992C248.664 57.1992 247.664 57.0352 246.828 56.707C246 56.3711 245.465 56.0859 245.223 55.8516ZM257.293 57C256.941 57 256.766 56.8242 256.766 56.4727V45.2227C256.766 44.8711 256.941 44.6953 257.293 44.6953H258.301C258.652 44.6953 258.828 44.8711 258.828 45.2227V56.4727C258.828 56.8242 258.652 57 258.301 57H257.293ZM257.293 42.4688C256.941 42.4688 256.766 42.293 256.766 41.9414V40.9336C256.766 40.582 256.941 40.4062 257.293 40.4062H258.301C258.652 40.4062 258.828 40.582 258.828 40.9336V41.9414C258.828 42.293 258.652 42.4688 258.301 42.4688H257.293ZM261.676 55.8516C261.434 55.625 261.383 55.4141 261.523 55.2188L262.051 54.4805C262.223 54.2461 262.477 54.2578 262.812 54.5156C263.273 54.8672 263.785 55.1484 264.348 55.3594C264.918 55.5703 265.566 55.6758 266.293 55.6758C266.723 55.6758 267.105 55.625 267.441 55.5234C267.777 55.4141 268.07 55.2148 268.32 54.9258C268.578 54.6367 268.707 54.25 268.707 53.7656C268.707 53.4844 268.645 53.2188 268.52 52.9688C268.402 52.7188 268.215 52.5195 267.957 52.3711C267.707 52.2148 267.461 52.0938 267.219 52.0078C266.82 51.8594 266.422 51.7383 266.023 51.6445C265.633 51.543 265.117 51.3906 264.477 51.1875C264.047 51.0547 263.641 50.8672 263.258 50.625C262.875 50.375 262.539 50.0391 262.25 49.6172C261.969 49.1953 261.828 48.6133 261.828 47.8711C261.828 47.1133 262.059 46.4609 262.52 45.9141C262.98 45.3672 263.559 44.9961 264.254 44.8008C264.949 44.5977 265.625 44.4961 266.281 44.4961C267.25 44.4961 268.027 44.6094 268.613 44.8359C269.207 45.0547 269.719 45.3164 270.148 45.6211C270.398 45.8008 270.434 46.0078 270.254 46.2422L269.727 46.9453C269.562 47.1719 269.309 47.1641 268.965 46.9219C268.676 46.7188 268.266 46.5273 267.734 46.3477C267.203 46.168 266.738 46.0781 266.34 46.0781C265.848 46.0781 265.426 46.1328 265.074 46.2422C264.723 46.3516 264.438 46.5391 264.219 46.8047C264 47.0703 263.891 47.3828 263.891 47.7422C263.891 48.0156 263.934 48.2617 264.02 48.4805C264.105 48.6914 264.266 48.8867 264.5 49.0664C264.734 49.2461 265.062 49.3906 265.484 49.5C266.141 49.6719 266.738 49.8281 267.277 49.9688C267.824 50.1094 268.316 50.2812 268.754 50.4844C269.324 50.75 269.762 51.043 270.066 51.3633C270.379 51.6836 270.594 52.0312 270.711 52.4062C270.828 52.7734 270.887 53.1836 270.887 53.6367C270.887 54.4727 270.637 55.1797 270.137 55.7578C269.645 56.3359 269.094 56.7227 268.484 56.918C267.875 57.1055 267.141 57.1992 266.281 57.1992C265.117 57.1992 264.117 57.0352 263.281 56.707C262.453 56.3711 261.918 56.0859 261.676 55.8516ZM272.621 46.2422C272.27 46.2422 272.094 46.1055 272.094 45.832V45.1055C272.094 44.832 272.27 44.6953 272.621 44.6953H274.004V43.6406C274.004 43.4844 274.043 43.3359 274.121 43.1953L274.941 41.707C275.09 41.4336 275.211 41.2969 275.305 41.2969H275.715C275.949 41.2969 276.066 41.4336 276.066 41.707V44.6953H278.562C278.914 44.6953 279.09 44.832 279.09 45.1055V45.832C279.09 46.1055 278.914 46.2422 278.562 46.2422H276.066V53.707C276.066 54.5273 276.188 55.0625 276.43 55.3125C276.68 55.5547 276.977 55.6758 277.32 55.6758C277.586 55.6758 277.902 55.5977 278.27 55.4414C278.645 55.2852 278.902 55.1523 279.043 55.043C279.184 54.9336 279.293 54.9688 279.371 55.1484L279.758 56.0508C279.82 56.207 279.773 56.332 279.617 56.4258C279.312 56.6055 278.867 56.7812 278.281 56.9531C277.695 57.1172 277.109 57.1992 276.523 57.1992C275.711 57.1992 275.086 56.9062 274.648 56.3203C274.219 55.7344 274.004 54.9062 274.004 53.8359V46.2422H272.621ZM281.434 53.7188C281.434 52.3281 282.082 51.3086 283.379 50.6602C284.684 50.0117 286.629 49.6328 289.215 49.5234V48.7266C289.215 47.9922 289.047 47.3594 288.711 46.8281C288.383 46.2891 287.727 46.0195 286.742 46.0195C286.117 46.0195 285.617 46.082 285.242 46.207C284.867 46.3242 284.523 46.4844 284.211 46.6875C283.906 46.8828 283.613 47.1367 283.332 47.4492C283.121 47.6836 282.922 47.6953 282.734 47.4844L282.125 46.7812C281.953 46.5859 282.012 46.3516 282.301 46.0781C282.715 45.6875 283.117 45.3945 283.508 45.1992C283.898 45.0039 284.383 44.8398 284.961 44.707C285.547 44.5664 286.141 44.4961 286.742 44.4961C288.375 44.4961 289.539 44.918 290.234 45.7617C290.93 46.5977 291.277 47.7461 291.277 49.207V56.4727C291.277 56.8242 291.102 57 290.75 57H289.695C289.391 57 289.238 56.8242 289.238 56.4727V55.8984H289.215C288.598 56.3828 287.992 56.7227 287.398 56.918C286.812 57.1055 286.156 57.1992 285.43 57.1992C284.148 57.1992 283.16 56.8945 282.465 56.2852C281.777 55.668 281.434 54.8125 281.434 53.7188ZM283.566 53.7656C283.566 54.25 283.668 54.6406 283.871 54.9375C284.074 55.2266 284.355 55.4141 284.715 55.5C285.074 55.5781 285.449 55.6172 285.84 55.6172C286.441 55.6172 287.012 55.5586 287.551 55.4414C288.09 55.3242 288.645 55.0156 289.215 54.5156V51.0586C287.637 51.1758 286.512 51.3203 285.84 51.4922C285.168 51.6562 284.621 51.9453 284.199 52.3594C283.777 52.7656 283.566 53.2344 283.566 53.7656ZM295.145 57C294.793 57 294.617 56.8242 294.617 56.4727V45.2227C294.617 44.8711 294.793 44.6953 295.145 44.6953H296.129C296.48 44.6953 296.656 44.8711 296.656 45.2227V46.1602H296.703C297.211 45.5977 297.758 45.1797 298.344 44.9062C298.93 44.6328 299.66 44.4961 300.535 44.4961C301.957 44.4961 302.977 44.8984 303.594 45.7031C304.219 46.5 304.531 47.5938 304.531 48.9844V56.4727C304.531 56.8242 304.355 57 304.004 57H302.996C302.645 57 302.469 56.8242 302.469 56.4727V49.5469C302.469 48.0156 302.215 47.0469 301.707 46.6406C301.199 46.2266 300.555 46.0195 299.773 46.0195C298.758 46.0195 297.988 46.3242 297.465 46.9336C296.941 47.5352 296.68 48.5703 296.68 50.0391V56.4727C296.68 56.8242 296.504 57 296.152 57H295.145ZM307.168 50.8477C307.168 49.0117 307.621 47.4961 308.527 46.3008C309.441 45.0977 310.836 44.4961 312.711 44.4961C313.977 44.4961 314.941 44.7227 315.605 45.1758C316.277 45.6211 316.762 46.0781 317.059 46.5469C317.223 46.8047 317.188 47.0117 316.953 47.168L316.215 47.6484C315.98 47.8125 315.746 47.707 315.512 47.332C315.285 46.9727 314.965 46.6641 314.551 46.4062C314.145 46.1484 313.531 46.0195 312.711 46.0195C311.641 46.0195 310.812 46.4141 310.227 47.2031C309.641 47.9922 309.348 49.207 309.348 50.8477C309.348 52.4883 309.641 53.7031 310.227 54.4922C310.812 55.2812 311.641 55.6758 312.711 55.6758C313.578 55.6758 314.242 55.5117 314.703 55.1836C315.164 54.8477 315.5 54.4844 315.711 54.0938C315.914 53.7266 316.145 53.6211 316.402 53.7773L317.188 54.2461C317.422 54.3867 317.457 54.5977 317.293 54.8789C317.098 55.2148 316.652 55.6875 315.957 56.2969C315.27 56.8984 314.188 57.1992 312.711 57.1992C310.836 57.1992 309.441 56.6016 308.527 55.4062C307.621 54.2031 307.168 52.6836 307.168 50.8477ZM319.191 50.8477C319.191 48.9102 319.676 47.3672 320.645 46.2188C321.613 45.0703 323 44.4961 324.805 44.4961C326.305 44.4961 327.547 45.0234 328.531 46.0781C329.523 47.125 330.02 48.8008 330.02 51.1055C330.02 51.457 329.859 51.6328 329.539 51.6328H321.371C321.504 53.1406 321.91 54.1914 322.59 54.7852C323.27 55.3711 324.039 55.6641 324.898 55.6641C325.805 55.6641 326.5 55.5117 326.984 55.207C327.469 54.9023 327.824 54.6016 328.051 54.3047C328.301 53.9766 328.543 53.9141 328.777 54.1172L329.469 54.7148C329.648 54.8711 329.648 55.0859 329.469 55.3594C329.32 55.5859 328.895 55.9492 328.191 56.4492C327.496 56.9492 326.398 57.1992 324.898 57.1992C322.945 57.1992 321.504 56.625 320.574 55.4766C319.652 54.3281 319.191 52.7852 319.191 50.8477ZM321.324 50.1094H327.945C327.914 49.0156 327.633 48.0586 327.102 47.2383C326.57 46.4102 325.789 45.9961 324.758 45.9961C323.852 45.9961 323.082 46.3008 322.449 46.9102C321.816 47.5117 321.441 48.5781 321.324 50.1094Z" fill="black"/>
</svg>
