<svg width="334" height="200" viewBox="0 0 334 200" fill="none" xmlns="http://www.w3.org/2000/svg">
<rect width="334" height="200" fill="#FFFAFA"/>
<path d="M46.0217 110.588C45.4258 113.378 54.5688 138.828 55.2009 139.87C57.5136 137.942 57.7275 137.221 58.2261 135.884C73.7019 94.3879 131.903 85.9083 69.5083 57.7723C66.3785 57.3863 36.9133 28.8927 36.9133 28.8927L33.651 33.1214C37.4923 37.169 51.8919 52.1571 60.5971 59.3132C50.583 75.1208 47.9395 91.3156 46.019 105.003L17.5695 105.017C16.6573 98.6277 2.39081 97.086 2.3961 108.264C2.4014 119.441 16.6573 116.358 17.5722 110.602C24.8212 110.595 37.8345 110.596 46.0217 110.588Z" fill="#3223D4"/>
<path d="M113.555 161.34C116.342 161.947 139.53 153.834 140.574 153.206C139.51 150.679 139.15 150.364 138.899 149.236C96.8282 57.7714 62.1388 131.004 59.2969 137.942C59.0553 139.869 44.0233 161.321 31.8238 170.126C32.6995 172.019 36.0396 173.405 36.0396 173.405C40.1023 169.58 52.1065 155.134 59.2969 146.457C75.0649 156.534 94.2897 159.346 107.97 161.321L107.97 182.653C98.7553 185.736 97.9845 199.18 111.475 199.227C124.965 199.274 121.882 183.809 113.555 182.653C113.577 175.404 113.53 169.527 113.555 161.34Z" fill="#092D4E"/>
<path d="M96.7618 43.3064C93.9465 42.849 74.8583 52.3753 67.1495 53.1463C68.3465 55.6131 68.1154 55.1286 72.1602 56.6152C117.256 73.1889 111.86 126.379 133.83 88.9918C142.695 68.9491 166.414 35.8015 177.908 30.1783C179.782 29.2617 173.524 27.1286 173.524 27.1286C169.671 31.1649 154.424 47.5676 147.706 56.6152C131.423 47.3932 116.106 44.271 102.34 43.0282L102.34 33.489C116.546 28.0766 112.613 10.4232 98.3699 11.1336C84.1264 11.844 83.1429 31.7446 96.0562 33.489C96.4202 40.7289 96.3506 35.1296 96.7618 43.3064Z" fill="#6EB6DE"/>
<path d="M172.366 8.70882C169.999 10.9549 169.911 14.7257 172.157 17.0924L191.503 37.441C193.749 39.8077 197.52 39.8953 199.886 37.6492C202.253 35.4031 202.341 31.6323 200.094 29.2656L180.749 8.91702C178.503 6.55034 174.732 6.46273 172.366 8.70882Z" fill="#6EB6DE"/>
<path d="M196.538 32.1213L177.193 11.7727C175.623 10.1218 173.307 9.58234 171.258 10.1641C171.544 9.63428 171.91 9.14716 172.366 8.70884C174.732 6.46275 178.503 6.55036 180.749 8.91704L200.094 29.2657C202.341 31.6323 202.253 35.4031 199.886 37.6492C199.17 38.3257 198.324 38.7858 197.438 39.0496C198.627 36.8515 198.352 34.0209 196.538 32.1213Z" fill="#B9E0F5"/>
<path d="M136.885 59.0368L110.154 50.9589C107.985 50.3036 105.693 50.9044 104.174 52.311C104.172 51.7436 104.259 51.1758 104.449 50.6076C105.45 47.6819 108.801 46.0505 111.907 46.9918L138.638 55.0697C141.743 56.011 143.473 59.1672 142.473 62.093C142.169 62.9755 141.646 63.7383 140.995 64.3566C140.986 62.0024 139.387 59.7873 136.885 59.0368Z" fill="#A2D4F0"/>
<path d="M182.859 17.2724C183.391 16.7734 182.375 14.8537 180.6 12.9898C178.825 11.1258 176.957 10.0274 176.436 10.5324C175.904 11.0313 176.92 12.951 178.695 14.8149C180.469 16.6789 182.338 17.7774 182.859 17.2724Z" fill="#EFF495"/>
<path d="M182.859 17.2724C183.391 16.7734 182.375 14.8537 180.6 12.9898C178.825 11.1258 176.957 10.0274 176.436 10.5324C175.904 11.0313 176.92 12.951 178.695 14.8149C180.469 16.6789 182.338 17.7774 182.859 17.2724Z" fill="#A2D4F0"/>
<path d="M196.754 35.2107C197.287 34.7117 196.271 32.792 194.496 30.9281C192.721 29.0641 190.852 27.9657 190.331 28.4707C189.799 28.9696 190.815 30.8893 192.59 32.7532C194.365 34.6172 196.233 35.7157 196.754 35.2107Z" fill="#A2D4F0"/>
<path d="M12.4179 170.87C11.6424 170.299 10.4994 169.873 9.59255 169.544C8.54072 169.162 7.77749 169.385 6.75336 169.722C6.48457 169.808 6.26295 170.498 6.66815 170.519C7.19293 170.544 7.70087 170.467 8.21986 170.563C8.74393 170.669 9.2219 170.897 9.6953 171.141C10.4768 171.536 11.2553 172.019 12.1477 171.795C12.4363 171.723 12.7004 171.078 12.4253 170.872L12.4179 170.87Z" fill="#275783"/>
<path d="M19.2181 164.647C19.1946 164.123 18.8632 163.682 19.0177 163.157C19.1995 162.543 19.9075 162.133 20.3525 161.738C20.4961 161.613 20.6486 161.224 20.3574 161.175C19.3466 160.999 18.4142 162.082 18.0886 162.926C17.8996 163.432 17.8806 163.91 17.941 164.445C17.9946 164.898 18.033 164.982 17.8742 165.417C17.7705 165.7 17.6994 165.904 17.6864 166.206C17.6804 166.382 17.7781 166.614 17.9901 166.607C18.8182 166.565 19.2453 165.341 19.213 164.637L19.2181 164.647Z" fill="#275783"/>
<path d="M24.8751 164.881C25.0636 164.35 25.056 163.775 25.2445 163.244C25.2764 163.141 25.3006 162.906 25.13 162.91C24.4527 162.934 24.3393 164.005 24.118 164.485C23.5748 165.64 22.5417 166.241 21.7948 167.22C21.6574 167.403 21.5018 167.88 21.8588 167.926C22.8074 168.042 23.6462 167.026 24.1359 166.331C24.4529 165.88 24.6985 165.399 24.8825 164.883L24.8751 164.881Z" fill="#275783"/>
<path d="M29.0235 167.069C29.0584 166.878 28.9851 166.645 28.7571 166.704C28.3619 166.807 28.1035 167.147 27.7993 167.4C27.3872 167.74 26.9526 168.05 26.4801 168.299C25.653 168.729 24.7793 168.918 24.209 169.718C24.105 169.872 23.9709 170.435 24.2745 170.497C25.1708 170.678 26.3612 169.908 27.0795 169.412C27.8626 168.864 28.8399 168.053 29.0308 167.071L29.0235 167.069Z" fill="#275783"/>
<path d="M29.8709 170.744C29.0536 171.403 28.3139 172.151 27.4644 172.784C26.7182 173.343 25.8305 173.787 25.4793 174.687C25.4098 174.859 25.3895 175.159 25.5962 175.247C26.3789 175.587 27.4776 174.41 28.0309 173.951C28.8811 173.238 29.7246 172.442 30.2273 171.444C30.3513 171.2 30.3453 170.359 29.8709 170.744Z" fill="#275783"/>
<path d="M32.4867 175.355C32.7902 175.182 32.9221 174.287 32.3964 174.447C31.2725 174.793 30.1865 175.2 29.2439 175.925C28.5198 176.491 27.6143 177.357 27.6773 178.353C27.6855 178.509 27.7911 178.767 28.001 178.663C28.7293 178.291 29.1938 177.442 29.8634 176.948C30.6794 176.345 31.5904 175.852 32.4794 175.353L32.4867 175.355Z" fill="#275783"/>
<path d="M34.0935 178.063C34.2206 177.626 33.7493 177.481 33.5328 177.841C33.0082 178.728 32.3449 179.515 31.5096 180.128C30.7702 180.666 29.842 180.927 29.2129 181.604C29.0318 181.798 28.9262 182.217 29.2003 182.375C30.1334 182.906 31.5306 181.781 32.1931 181.179C33.1279 180.322 33.7514 179.273 34.1009 178.065L34.0935 178.063Z" fill="#275783"/>
<path d="M32.7866 185.18C33.5058 185.176 34.2301 184.505 34.7896 184.105C35.4404 183.645 36.2182 183.191 36.6048 182.464C36.6821 182.318 36.8485 181.781 36.5375 181.717C35.8446 181.583 35.1527 182.176 34.5921 182.527C33.8608 182.986 33.0582 183.416 32.5718 184.153C32.3922 184.42 32.2793 185.176 32.7888 185.172L32.7866 185.18Z" fill="#275783"/>
<path d="M33.9773 188.606C34.6318 188.995 35.5339 188.765 36.2352 188.611C37.0845 188.422 37.8983 188.166 38.6624 187.757C38.942 187.609 39.1919 186.646 38.6738 186.703C37.866 186.784 37.0609 186.987 36.2592 187.126C35.5013 187.254 34.7229 187.344 34.0688 187.763C33.8163 187.927 33.676 188.433 33.975 188.614L33.9773 188.606Z" fill="#275783"/>
<path d="M36.4428 194.276C35.9606 193.513 35.0992 193.142 34.4116 192.574C33.8258 192.094 33.3238 191.317 32.5504 191.183C32.2983 191.137 32.1881 191.571 32.2088 191.739C32.3877 193.247 34.7384 195.064 36.2533 194.758C36.4183 194.72 36.531 194.408 36.4428 194.276Z" fill="#275783"/>
<path d="M28.6871 193.731C28.4686 192.873 28.5452 191.791 28.1526 191C28.0125 190.722 27.7162 191.002 27.6445 191.181C27.2807 192.174 27.5065 193.374 27.7792 194.37C28.0541 195.359 28.4376 196.519 29.2327 197.209C29.5061 197.447 29.7892 196.897 29.7233 196.667C29.4285 195.663 28.9381 194.745 28.6797 193.729L28.6871 193.731Z" fill="#275783"/>
<path d="M24.7328 190.708C24.7543 190.351 24.3879 190.206 24.1573 190.481C23.6444 191.121 23.3881 191.897 23.112 192.659C22.8426 193.399 22.5348 194.159 22.4688 194.946C22.4434 195.236 22.7657 195.368 22.9508 195.135C23.4348 194.51 23.7279 193.746 24.034 193.017C24.347 192.267 24.6917 191.518 24.7498 190.705L24.7328 190.708Z" fill="#275783"/>
<path d="M22.608 186.257C21.5934 186.355 20.7844 187.509 20.2328 188.274C19.4824 189.317 19.0027 190.476 18.7127 191.725C18.5876 192.26 19.1759 192.288 19.3416 191.831C19.7049 190.814 20.2137 189.874 20.8878 189.025C21.4694 188.294 22.2796 187.762 22.7622 186.959C22.8611 186.796 22.9731 186.225 22.6154 186.26L22.608 186.257Z" fill="#275783"/>
<path d="M20.3785 182.824C19.5649 181.959 18.1994 183.085 17.5314 183.653C16.4252 184.594 15.1993 185.635 14.7203 187.052C14.6428 187.302 14.8071 187.684 15.0688 187.386C15.9092 186.444 16.7636 185.586 17.776 184.818C18.558 184.221 19.4936 183.962 20.2591 183.392C20.4151 183.279 20.5307 182.984 20.3785 182.824Z" fill="#275783"/>
<path d="M15.8419 179.596C15.0408 179.421 14.2002 180.129 13.5608 180.552C12.7386 181.097 11.9379 181.728 11.2905 182.464C11.0668 182.718 11.0411 183.557 11.5557 183.224C12.2723 182.76 12.9583 182.238 13.6925 181.795C14.405 181.37 15.289 181.095 15.8286 180.447C15.9569 180.293 16.2067 179.668 15.8442 179.588L15.8419 179.596Z" fill="#275783"/>
<path d="M13.0547 176.086C11.7211 175.076 9.31608 175.938 8.12556 176.812C7.91673 176.965 7.74315 177.735 8.19569 177.576C8.9726 177.308 9.73303 177.068 10.5611 177.025C11.3088 176.982 12.0651 177.12 12.7982 176.967C13.0749 176.908 13.3174 176.281 13.0621 176.089L13.0547 176.086Z" fill="#275783"/>
<path d="M14.8727 168.023C15.2196 168.388 15.63 167.636 15.6191 167.358C15.5825 166.225 14.9693 165.156 14.3736 164.213C13.8609 163.392 13.1713 162.283 12.1901 162.012C12.0134 161.957 11.8803 162.231 11.9152 162.379C12.1889 163.424 12.9032 164.322 13.4208 165.257C13.9079 166.134 14.1865 167.294 14.8727 168.023Z" fill="#275783"/>
<path d="M14.1989 167.984C10.12 171.385 12.2054 178.309 16.3137 180.444C20.4219 182.579 20.0101 187.221 24.5692 190.246C29.1356 193.273 33.8484 194.498 34.6311 189.414C35.4137 184.33 30.1758 181.934 30.1758 181.934C30.1758 181.934 29.93 178.453 27.4392 176.698C24.9506 174.935 26.104 169.514 21.6228 167.723C18.4918 166.472 16.0838 166.404 14.1916 167.981L14.1989 167.984Z" fill="#F2B3D2"/>
<path d="M15.3127 169.313C13.7128 170.649 13.6568 172.577 13.7668 173.603C14.0073 175.824 15.3883 178.011 17.1194 178.91C19.6494 180.226 20.7513 182.245 21.8152 184.205C22.7446 185.921 23.6232 187.54 25.5379 188.811C28.8922 191.035 31.0459 191.403 31.942 191.011C32.4371 190.793 32.7748 190.171 32.9261 189.161C33.4974 185.464 29.6216 183.595 29.4591 183.52L28.5354 183.089L28.4549 182.072C28.4549 182.072 28.2163 179.375 26.4484 178.126C24.933 177.052 24.4178 175.327 23.9162 173.662C23.2489 171.438 22.7162 170.031 20.9921 169.344C17.5955 167.986 16.2207 168.569 15.3178 169.322L15.3127 169.313ZM32.7247 194.4C29.8459 195.228 26.225 193.421 23.6203 191.695C20.9906 189.945 19.8074 187.771 18.7616 185.858C17.8349 184.159 17.1061 182.811 15.5131 181.988C12.7265 180.536 10.6886 177.396 10.3174 173.98C10.0032 171.059 11.0063 168.391 13.0852 166.654C16.1392 164.114 19.7869 165.13 22.2636 166.122C25.6676 167.483 26.5637 170.479 27.2277 172.662C27.5721 173.818 27.9029 174.912 28.4475 175.291C30.6711 176.867 31.4773 179.424 31.7612 180.827C34.0118 182.186 37.0281 185.242 36.3462 189.687C35.9142 192.49 34.4721 193.682 33.3343 194.177C33.129 194.267 32.9283 194.342 32.7173 194.398L32.7247 194.4Z" fill="#092D4E"/>
<path d="M14.7651 168.683C10.9353 171.88 12.8922 178.384 16.7564 180.395C20.6206 182.406 20.2246 186.762 24.5164 189.608C28.8009 192.451 33.2367 193.606 33.9724 188.831C34.7081 184.055 29.7878 181.806 29.7878 181.806C29.7878 181.806 29.5564 178.539 27.219 176.888C24.8816 175.236 25.9613 170.131 21.7531 168.45C18.809 167.272 16.5523 167.211 14.7725 168.686L14.7651 168.683Z" fill="#146AB9"/>
<path d="M33.1861 190.928C31.817 190.528 30.3005 189.744 28.794 188.745C24.5095 185.902 24.9005 181.536 21.034 179.533C17.1675 177.529 15.2129 171.017 19.0427 167.821C19.0978 167.773 19.1506 167.733 19.213 167.688C17.4531 167.377 15.9938 167.66 14.7651 168.683C10.9353 171.88 12.8922 178.384 16.7564 180.395C20.6206 182.406 20.2245 186.762 24.5164 189.608C27.9969 191.92 31.5678 193.106 33.1861 190.928Z" fill="#275783"/>
<path d="M18.4734 177.481C18.5295 177.482 18.5879 177.476 18.6463 177.47C20.0118 177.36 21.0577 177.24 21.9645 175.875C22.9185 174.435 22.4005 170.659 19.7712 170.055C18.6857 169.808 17.6456 169.857 16.7774 170.186C16.1351 172.626 16.8984 175.452 18.4734 177.481Z" fill="#D65B6A"/>
<path d="M21.9645 175.875C22.9185 174.435 22.4006 170.659 19.7712 170.055C17.1493 169.454 14.7868 170.594 14.5773 173.201C14.3678 175.807 16.7429 177.623 18.6463 177.47C20.0118 177.36 21.0577 177.24 21.9645 175.875Z" fill="#BF434C"/>
<path d="M21.9645 175.875C22.9185 174.435 22.4006 170.659 19.7712 170.055C17.1493 169.454 14.7868 170.594 14.5773 173.201C14.3678 175.807 16.7429 177.623 18.6463 177.47C20.0118 177.36 21.0577 177.24 21.9645 175.875Z" fill="#092D4E"/>
<path d="M12.4179 170.87C11.6424 170.299 10.4994 169.873 9.59255 169.544C8.54072 169.162 7.77749 169.385 6.75336 169.722C6.48457 169.808 6.26295 170.498 6.66815 170.519C7.19293 170.544 7.70087 170.467 8.21986 170.563C8.74393 170.669 9.2219 170.897 9.6953 171.141C10.4768 171.536 11.2553 172.019 12.1477 171.795C12.4363 171.723 12.7004 171.078 12.4253 170.872L12.4179 170.87Z" fill="#275783"/>
<path d="M19.2181 164.647C19.1946 164.123 18.8632 163.682 19.0177 163.157C19.1995 162.543 19.9075 162.133 20.3525 161.738C20.4961 161.613 20.6486 161.224 20.3574 161.175C19.3466 160.999 18.4142 162.082 18.0886 162.926C17.8996 163.432 17.8806 163.91 17.941 164.445C17.9946 164.898 18.033 164.982 17.8742 165.417C17.7705 165.7 17.6994 165.904 17.6864 166.206C17.6804 166.382 17.7781 166.614 17.9901 166.607C18.8182 166.565 19.2453 165.341 19.213 164.637L19.2181 164.647Z" fill="#275783"/>
<path d="M22.608 186.257C21.5934 186.355 20.7844 187.509 20.2328 188.274C19.4824 189.317 19.0027 190.476 18.7127 191.725C18.5876 192.26 19.1759 192.288 19.3416 191.831C19.7049 190.814 20.2137 189.874 20.8878 189.025C21.4694 188.294 22.2796 187.762 22.7622 186.959C22.8611 186.796 22.9731 186.225 22.6154 186.26L22.608 186.257Z" fill="#275783"/>
<path d="M20.3785 182.824C19.5649 181.959 18.1994 183.085 17.5314 183.653C16.4252 184.594 15.1993 185.635 14.7203 187.052C14.6428 187.302 14.8071 187.684 15.0688 187.386C15.9092 186.444 16.7636 185.586 17.776 184.818C18.558 184.221 19.4936 183.962 20.2591 183.392C20.4151 183.279 20.5307 182.984 20.3785 182.824Z" fill="#275783"/>
<path d="M15.8419 179.596C15.0408 179.421 14.2002 180.129 13.5608 180.552C12.7386 181.097 11.9379 181.728 11.2905 182.464C11.0668 182.718 11.0411 183.557 11.5557 183.224C12.2723 182.76 12.9583 182.238 13.6925 181.795C14.405 181.37 15.289 181.095 15.8286 180.447C15.9569 180.293 16.2067 179.668 15.8442 179.588L15.8419 179.596Z" fill="#275783"/>
<path d="M13.0547 176.086C11.7211 175.076 9.31608 175.938 8.12556 176.812C7.91673 176.965 7.74315 177.735 8.19569 177.576C8.9726 177.308 9.73303 177.068 10.5611 177.025C11.3088 176.982 12.0651 177.12 12.7982 176.967C13.0749 176.908 13.3174 176.281 13.0621 176.089L13.0547 176.086Z" fill="#275783"/>
<path d="M14.8727 168.023C15.2196 168.388 15.63 167.636 15.6191 167.358C15.5825 166.225 14.9693 165.156 14.3736 164.213C13.8609 163.392 13.1713 162.283 12.1901 162.012C12.0134 161.957 11.8803 162.231 11.9152 162.379C12.1889 163.424 12.9032 164.322 13.4208 165.257C13.9079 166.134 14.1865 167.294 14.8727 168.023Z" fill="#275783"/>
<path d="M14.1989 167.984C10.12 171.385 12.2054 178.309 16.3137 180.444C20.4219 182.579 20.0101 187.221 24.5692 190.246C29.1356 193.273 33.8484 194.498 34.6311 189.414C35.4137 184.33 30.1758 181.934 30.1758 181.934C30.1758 181.934 29.93 178.453 27.4392 176.698C24.9506 174.935 26.104 169.514 21.6228 167.723C18.4918 166.472 16.0838 166.404 14.1916 167.981L14.1989 167.984Z" fill="#F2B3D2"/>
<path d="M15.3127 169.313C13.7128 170.649 13.6568 172.577 13.7668 173.603C14.0073 175.824 15.3883 178.011 17.1194 178.91C19.6494 180.226 20.7513 182.245 21.8152 184.205C22.7446 185.921 23.6232 187.54 25.5379 188.811C28.8922 191.035 31.0459 191.403 31.942 191.011C32.4371 190.793 32.7748 190.171 32.9261 189.161C33.4974 185.464 29.6216 183.595 29.4591 183.52L28.5354 183.089L28.4549 182.072C28.4549 182.072 28.2163 179.375 26.4484 178.126C24.933 177.052 24.4178 175.327 23.9162 173.662C23.2489 171.438 22.7162 170.031 20.9921 169.344C17.5955 167.986 16.2207 168.569 15.3178 169.322L15.3127 169.313ZM32.7247 194.4C29.8459 195.228 26.225 193.421 23.6203 191.695C20.9906 189.945 19.8074 187.771 18.7616 185.858C17.8349 184.159 17.1061 182.811 15.5131 181.988C12.7265 180.536 10.6886 177.396 10.3174 173.98C10.0032 171.059 11.0063 168.391 13.0852 166.654C16.1392 164.114 19.7869 165.13 22.2636 166.122C25.6676 167.483 26.5637 170.479 27.2277 172.662C27.5721 173.818 27.9029 174.912 28.4475 175.291C30.6711 176.867 31.4773 179.424 31.7612 180.827C34.0118 182.186 37.0281 185.242 36.3462 189.687C35.9142 192.49 34.4721 193.682 33.3343 194.177C33.129 194.267 32.9283 194.342 32.7173 194.398L32.7247 194.4Z" fill="#092D4E"/>
<path d="M14.7651 168.683C10.9353 171.88 12.8922 178.384 16.7564 180.395C20.6206 182.406 20.2246 186.762 24.5164 189.608C28.8009 192.451 33.2367 193.606 33.9724 188.831C34.7081 184.055 29.7878 181.806 29.7878 181.806C29.7878 181.806 29.5564 178.539 27.219 176.888C24.8816 175.236 25.9613 170.131 21.7531 168.45C18.809 167.272 16.5523 167.211 14.7725 168.686L14.7651 168.683Z" fill="#146AB9"/>
<path d="M33.1861 190.928C31.817 190.528 30.3005 189.744 28.794 188.745C24.5095 185.902 24.9005 181.536 21.034 179.533C17.1675 177.529 15.2129 171.017 19.0427 167.821C19.0978 167.773 19.1506 167.733 19.213 167.688C17.4531 167.377 15.9938 167.66 14.7651 168.683C10.9353 171.88 12.8922 178.384 16.7564 180.395C20.6206 182.406 20.2245 186.762 24.5164 189.608C27.9969 191.92 31.5678 193.106 33.1861 190.928Z" fill="#275783"/>
<path d="M104.835 152.696C102.746 153.025 100.22 152.954 97.5735 152.604C90.0451 151.606 87.8503 145.809 81.4066 145.624C74.9628 145.438 68.279 138.344 71.4335 131.932C71.4778 131.838 71.5237 131.755 71.5794 131.659C69.0212 132.34 67.2365 133.593 66.2234 135.648C63.0689 142.059 69.7512 149.142 76.1965 149.339C82.6417 149.535 84.8237 155.322 92.3634 156.319C98.4807 157.133 104.018 156.458 104.835 152.696Z" fill="#275783"/>
<path d="M18.4734 177.481C18.5295 177.482 18.5879 177.476 18.6463 177.47C20.0118 177.36 21.0577 177.24 21.9645 175.875C22.9185 174.435 22.4005 170.659 19.7712 170.055C18.6857 169.808 17.6456 169.857 16.7774 170.186C16.1351 172.626 16.8984 175.452 18.4734 177.481Z" fill="#D65B6A"/>
<path d="M21.9645 175.875C22.9185 174.435 22.4006 170.659 19.7712 170.055C17.1493 169.454 14.7868 170.594 14.5773 173.201C14.3678 175.807 16.7429 177.623 18.6463 177.47C20.0118 177.36 21.0577 177.24 21.9645 175.875Z" fill="#BF434C"/>
<path d="M21.9645 175.875C22.9185 174.435 22.4006 170.659 19.7712 170.055C17.1493 169.454 14.7868 170.594 14.5773 173.201C14.3678 175.807 16.7429 177.623 18.6463 177.47C20.0118 177.36 21.0577 177.24 21.9645 175.875Z" fill="#092D4E"/>
<path d="M25.5947 181.275C24.6316 181.049 24.0256 180.087 24.2511 179.124C24.4766 178.161 25.4388 177.555 26.4019 177.781C27.365 178.006 27.971 178.968 27.7455 179.931C27.52 180.894 26.5578 181.5 25.5947 181.275Z" fill="#1586EE"/>
<path d="M30.3522 188.299C29.5608 188.119 29.0633 187.328 29.246 186.529C29.4265 185.737 30.2179 185.24 31.0167 185.423C31.8082 185.603 32.3056 186.394 32.1229 187.193C31.9425 187.985 31.1511 188.482 30.3522 188.299Z" fill="#1586EE"/>
<path d="M25.396 187.548C24.6046 187.368 24.1072 186.576 24.2898 185.777C24.4703 184.986 25.2617 184.489 26.0605 184.671C26.852 184.852 27.3494 185.643 27.1667 186.442C26.9863 187.233 26.1949 187.731 25.396 187.548Z" fill="#1586EE"/>
<path d="M21.2849 183.701C20.7654 183.581 20.4495 183.064 20.5677 182.551C20.6881 182.032 21.2055 181.716 21.7177 181.834C22.2372 181.955 22.5531 182.472 22.435 182.984C22.3145 183.504 21.7971 183.82 21.2849 183.701Z" fill="#1586EE"/>
<path d="M12.0717 15.287C11.7472 16.282 12.239 17.1475 13.0289 17.7492C13.112 17.7934 13.1985 17.8446 13.2884 17.8854C13.6703 18.2966 13.791 18.2958 13.64 17.8796C13.5652 18.0387 13.3043 18.2059 13.2019 18.3617C12.8945 18.8119 12.7498 19.3437 12.7464 19.8816C12.7365 21.0021 13.2941 21.9293 14.3245 22.3914C14.9157 22.653 15.5849 22.7107 16.183 22.9688C16.6048 23.1522 16.9381 23.5017 17.4059 23.3331C17.657 23.2487 17.7446 22.9448 17.7741 22.7136C17.879 21.8821 17.4613 21.2642 16.6903 20.9383C15.6256 20.4936 13.5424 20.8865 14.3027 19.0474C14.5335 18.4978 14.9031 18.0851 14.5301 17.4532C14.3663 17.1819 14.1276 17.0525 13.844 16.9199C13.0037 16.5254 12.4126 16.2811 12.1715 15.2622C12.1538 15.1934 12.0919 15.2248 12.075 15.2766L12.0717 15.287Z" fill="#3223D4"/>
<path d="M16.6421 11.9785C16.6322 12.044 16.6223 12.1096 16.6124 12.1752C16.5929 12.358 16.7999 12.3739 16.809 12.1877C16.812 12.1256 16.8116 12.0567 16.8215 11.9911C16.8307 11.8221 16.6617 11.8128 16.6421 11.9785Z" fill="#34526A"/>
<path d="M16.7047 12.0505C15.7291 13.1084 16.0806 15.1953 17.6033 15.5542C18.3215 15.7254 19.0842 15.3205 19.783 15.6917C20.3539 15.9982 20.6272 16.6722 21.0473 17.1245C21.7659 17.892 22.6307 18.3346 23.401 17.5021C23.6132 17.2732 23.6466 16.5731 23.2872 16.4445C22.6236 16.1937 22.0818 16.1145 21.5579 15.5939C21.138 15.176 20.8105 14.6507 20.2913 14.3438C19.7999 14.0574 19.3862 14.0601 18.8211 14.1052C18.4731 14.1351 18.0432 14.293 17.6877 14.2229C16.9627 14.0725 16.5402 13.2582 17.0082 12.5967C17.179 12.3543 17.0162 11.7106 16.6979 12.054L16.7047 12.0505Z" fill="#6EB6DE"/>
<path d="M20.1647 11.8486C20.7844 11.1964 21.9808 11.2196 22.6533 11.7772C23.4887 12.4681 23.007 13.1366 22.8229 13.9825C22.6018 14.9768 23.1424 16.9763 24.5411 16.3087C24.902 16.1339 25.0223 15.554 24.8098 15.2209C24.6636 15.0012 24.068 14.5949 24.0254 14.409C23.9616 14.1474 24.3024 13.5418 24.3349 13.2314C24.4225 12.3999 24.2272 11.5221 23.7057 10.8532C22.5862 9.41603 20.7619 9.8589 19.795 11.2063C19.5866 11.4938 19.7813 12.2682 20.1648 11.8658L20.1647 11.8486Z" fill="#6EB6DE"/>
<path d="M23.2921 7.18091C23.4094 7.19048 23.4249 6.93181 23.3076 6.92224C23.1904 6.91266 23.1748 7.17133 23.2921 7.18091Z" fill="#34526A"/>
<path d="M26.5386 5.43589C26.4937 5.4155 26.4384 5.39174 26.3934 5.37135C26.2586 5.31018 26.1349 5.37304 26.046 5.48739C25.3966 6.35351 26.0971 7.51075 27.1376 7.41431C27.7647 7.35506 28.4741 6.70918 29.0764 7.07758C29.8552 7.55514 29.2895 8.56896 29.2112 9.24863C29.1621 9.64542 29.5449 10.1945 29.9075 9.75086C30.6872 8.78391 30.7587 7.07001 29.9767 6.09258C29.6221 5.65017 29.1033 5.395 28.5282 5.4884C28.1838 5.54236 27.8884 5.70978 27.5722 5.8532C27.2697 5.98963 26.5376 6.3357 26.6478 5.78682C26.6712 5.67979 26.6631 5.49368 26.5386 5.43589Z" fill="#3223D4"/>
<path d="M35.3095 1.27259C34.9904 3.09496 32.0347 2.38339 31.4819 4.30728C31.31 4.90482 31.4098 5.40752 31.6272 5.97149C31.8516 6.54921 32.1924 6.9986 32.2312 7.65338C32.2623 8.19099 32.1106 8.72635 32.0762 9.25405C32.0635 9.4334 32.1734 9.88776 32.4587 9.76868C34.3462 8.97376 33.3475 6.49806 32.9389 5.16653C32.5473 4.85537 32.6351 4.56866 33.1815 4.29963C33.4043 4.10856 33.6445 3.93461 33.8917 3.77441C34.3413 3.46809 34.8329 3.26147 35.1747 2.81105C35.5678 2.29136 35.6682 1.82528 35.4265 1.24767C35.3916 1.17895 35.3158 1.18291 35.2991 1.2692L35.3095 1.27259Z" fill="#6EB6DE"/>
<path d="M3.72677 22.3813C4.43393 21.9182 5.39177 21.8292 6.13577 22.2553C7.36083 22.9643 6.94004 23.991 7.11286 25.1138C7.19555 25.6338 7.2716 26.1918 7.729 26.5473C8.23833 26.937 8.51975 26.7421 9.0497 26.5939C9.6691 26.4174 10.0396 26.1427 10.7008 26.559C11.0297 26.7637 11.2143 27.0589 11.5603 27.2463C11.9167 27.437 12.1716 26.8838 12.1768 26.6217C12.181 25.6771 11.8145 24.9899 10.8916 24.6202C10.3593 24.4065 9.94963 24.5022 9.41202 24.5333C9.28448 24.5376 9.01726 24.7945 8.89987 24.7677C8.39921 24.6503 8.2843 23.9477 8.14404 23.5867C7.77948 22.6651 7.57117 21.9149 6.55487 21.4975C5.48325 21.0563 4.49308 21.473 3.66684 22.1783C3.60172 22.2373 3.62042 22.4613 3.73026 22.3882L3.72677 22.3813Z" fill="#3223D4"/>
<path d="M0.9915 26.9189C0.843802 28.585 1.78575 30.2854 3.34495 30.9544C3.72529 31.1242 4.12208 31.1734 4.53588 31.1879C5.18074 31.2147 5.60265 31.4154 6.18679 31.646C6.99557 31.9613 7.57745 31.8472 7.96173 31.038C8.11472 30.7094 8.08398 30.2235 7.762 30.0153C7.0314 29.5306 5.75563 28.977 4.86698 29.1C4.28487 29.1796 3.76913 29.3899 3.17181 29.2524C2.09456 29.0043 1.35776 28.099 1.41228 26.9472C1.43042 26.5575 1.03375 26.5256 0.998379 26.9154L0.9915 26.9189Z" fill="#6EB6DE"/>
<path d="M8.33424 33.7069C7.63147 34.3148 7.17193 34.1593 6.96588 33.2263C7.10648 33.1117 7.25744 33.0004 7.40502 32.8994C7.72419 32.6767 8.06081 32.4883 8.35914 32.2416C8.8563 31.8246 9.20802 31.3086 9.35211 30.6734C9.57011 29.7411 9.33263 27.6914 7.97599 27.9485C7.6833 28.0021 7.63845 28.5264 7.70875 28.7328C7.86006 29.2007 8.32613 29.8285 8.17415 30.3122C8.02544 30.7682 7.28988 31.1074 6.94008 31.389C6.31245 31.8895 5.79951 32.5307 5.76706 33.3686C5.68302 35.2791 7.82388 35.7995 8.59166 34.0604C8.66646 33.9013 8.53264 33.4678 8.34123 33.7207L8.33424 33.7069Z" fill="#3223D4"/>
<path d="M14.1602 35.7615C13.4024 35.8699 12.6129 35.8647 12.0639 35.2098C11.143 34.0954 11.9215 32.9388 12.5156 32.0489C13.0345 31.2664 13.4468 30.5293 13.4646 29.5605C13.4883 28.433 12.6125 25.7738 11.0586 26.4424C10.6666 26.607 10.6153 27.1865 10.7933 27.5198C11.0585 28.0076 11.4009 28.1881 11.7415 28.603C12.5755 29.6146 11.7549 30.6542 11.2751 31.6157C10.785 32.5911 10.5167 33.7306 10.7651 34.8149C11.1057 36.2848 12.9734 37.7481 14.2991 36.4432C14.4703 36.2697 14.5287 35.7039 14.1567 35.7546L14.1602 35.7615Z" fill="#3223D4"/>
<path d="M19.3834 29.9941C18.6587 29.8782 17.991 29.5171 17.3577 29.1558C16.9217 28.9105 16.1403 28.5639 15.8718 28.1037C15.5267 27.5095 16.0954 26.9611 16.323 26.4563C16.5099 26.0414 16.6277 25.5924 16.6109 25.134C16.5789 24.4585 16.271 23.7676 15.5733 23.5687C14.886 23.3732 14.3681 23.7834 14.2449 24.46C14.1918 24.7637 14.2598 25.6803 14.8169 25.4663C15.1539 25.3297 15.3943 25.1902 15.3666 25.6972C15.3481 26.0352 15.0062 26.4683 14.9015 26.8069C14.6989 27.4632 14.6761 28.1839 15.0626 28.7744C15.9819 30.1749 17.9291 30.076 19.3744 30.1976C19.4641 30.2039 19.4766 30.0073 19.3903 29.9906L19.3834 29.9941Z" fill="#6EB6DE"/>
<path d="M28.1681 36.3772C26.8751 36.8786 25.2067 36.3862 24.4715 35.1947C23.7851 34.0822 24.3941 33.3749 24.6317 32.277C24.7589 31.6936 24.6452 31.1806 24.3042 30.6968C23.8519 30.0619 23.0598 29.1328 22.2493 29.0864C21.8561 29.0614 21.7774 29.6721 21.8619 29.9405C22.066 30.5804 22.3055 30.8305 22.7982 31.3065C23.4123 31.9023 23.4436 31.9469 23.2246 32.7241C22.9582 33.629 23.006 34.6251 23.3497 35.5054C24.1945 37.6442 26.5061 37.9222 28.2604 36.7799C28.3839 36.6998 28.3675 36.2931 28.175 36.3737L28.1681 36.3772Z" fill="#3223D4"/>
<path d="M35.7873 27.4293C34.701 28.4396 33.3009 29.4279 31.8593 29.8751C30.5897 30.2695 29.9431 29.9669 29.1464 28.8758C28.8925 28.5293 28.7382 28.1235 28.4293 27.8049C27.2423 26.5922 25.181 26.6367 24.3359 28.1557C24.1826 28.4325 24.2596 29.1456 24.7071 29.0393C26.3696 28.6354 27.1912 28.2784 28.3671 29.8945C28.8924 30.6219 29.2208 31.2852 30.1734 31.4582C32.4791 31.8775 34.5259 29.082 35.8505 27.6047C35.8984 27.5458 35.8592 27.3495 35.7769 27.4259L35.7873 27.4293Z" fill="#3223D4"/>
<path d="M41.2317 26.5043C40.6487 25.3911 39.5397 24.502 38.2528 24.3518C37.856 24.3027 37.5665 24.3115 37.2232 24.5378C36.4577 25.0393 36.5055 26.018 35.4436 24.4391C35.193 24.065 35.1419 23.6413 34.7812 23.3058C34.2783 22.8436 33.5359 22.6589 32.9104 22.432C31.7286 22.0122 29.8947 20.9899 28.7518 21.7696C28.4875 21.9472 28.429 22.4957 28.6031 22.7532C29.2888 23.7623 30.3159 23.7245 31.4924 23.8616C32.1342 23.9333 33.1091 23.8269 33.7003 24.0885C34.6995 24.5233 34.7191 25.4126 35.3131 26.0879C35.7229 26.5541 36.227 26.6611 36.7452 26.3026C37.4454 25.8257 37.6172 25.2109 38.6557 25.3317C39.6251 25.4357 40.3984 26.1236 41.1159 26.7188C41.2338 26.8145 41.2736 26.5867 41.2352 26.5111L41.2317 26.5043Z" fill="#3223D4"/>
<path d="M41.5769 17.0592C40.908 18.1082 39.9396 19.2143 38.6728 19.5121C37.3889 19.8101 37.0089 19.1645 36.2584 18.2834C35.3933 17.2617 34.0153 16.8811 32.8375 17.6093C32.5594 17.7766 32.5391 18.3663 32.8229 18.5334C33.3144 18.837 33.6971 18.8414 34.26 18.979C35.1681 19.2006 35.3024 19.7031 35.8819 20.2819C36.4441 20.8437 37.0049 21.1985 37.8427 21.1965C40.1078 21.2127 40.9373 18.8975 41.6915 17.1826C41.7322 17.0927 41.6518 16.9174 41.5734 17.0523L41.5769 17.0592Z" fill="#6EB6DE"/>
<path d="M39.7188 1.26744C39.6531 2.29523 39.2543 3.51827 37.9924 3.50238C36.9649 3.48841 36.9004 2.5787 36.3998 1.95108C36.014 1.46405 35.5223 1.14318 34.8776 1.1336C33.1296 1.11399 31.9595 3.54182 31.6964 4.96392C31.6566 5.19172 31.7636 5.74262 32.1034 5.50942C33.085 4.83763 33.8109 1.97833 35.3662 2.57148C36.009 2.8155 36.1429 3.77649 36.6627 4.18679C36.9676 4.42958 37.3443 4.55812 37.7237 4.59012C39.6139 4.73635 40.4832 2.70352 40.1522 1.11638C40.0774 0.747982 39.7275 1.01228 39.7153 1.26058L39.7188 1.26744Z" fill="#6EB6DE"/>
<path d="M36.5978 5.8494C37.0799 5.24983 38.1464 4.89811 38.8597 5.383C39.4458 6.43411 39.3773 7.03097 38.6405 7.18058C38.4271 7.23714 38.2103 7.28683 37.9968 7.32614C37.2083 7.47609 36.3948 7.49174 35.6769 7.89979C34.437 8.60774 33.6897 10.3192 33.8849 11.7072C33.9246 11.9724 34.1606 12.2157 34.3795 11.9488C34.8755 11.3595 34.9633 10.5453 35.4592 9.93871C36.0509 9.21431 36.7917 9.14053 37.6595 8.99351C38.8337 8.78588 39.9796 8.45432 40.3366 7.16606C40.5857 6.24394 40.2676 5.05661 39.4299 4.53117C38.2807 3.81814 37.1105 4.64632 36.4757 5.62612C36.4143 5.7265 36.4816 6.0122 36.6081 5.85279L36.5978 5.8494Z" fill="#3223D4"/>
<path d="M5.31829 41.1841C3.07682 38.9854 3.02894 35.352 5.23447 33.1071L27.5838 10.266C29.7824 8.02449 33.4193 7.98348 35.6608 10.1821C37.9091 12.3773 37.9432 16.0177 35.7481 18.266L13.3988 41.1071C11.2036 43.3555 7.56673 43.3965 5.3149 41.1944L5.31829 41.1841Z" fill="#3223D4"/>
<path d="M13.4742 37.3419L35.8234 14.5008C36.4057 13.9109 36.8184 13.2256 37.0928 12.4895C36.8184 11.6432 36.3408 10.8396 35.6642 10.1718C33.4158 7.97662 29.7858 8.01412 27.5871 10.2556L5.23785 33.0967C4.65563 33.6866 4.23609 34.3754 3.96853 35.108C4.24296 35.9543 4.72052 36.7579 5.39715 37.4258C7.63862 39.6244 11.2755 39.5834 13.4742 37.3419Z" fill="#558FFF"/>
<path d="M20.9116 23.2723C20.0199 22.4024 20.0071 20.9649 20.8769 20.0732L29.7262 11.0277C30.5961 10.136 32.0336 10.1231 32.9253 10.993C33.817 11.8628 33.8299 13.3004 32.96 14.192L24.1107 23.2376C23.2409 24.1293 21.8033 24.1421 20.9116 23.2723Z" fill="#95C4FC"/>
<path d="M18.3317 28.8983C17.3215 29.4117 16.095 29.006 15.5816 27.9958C15.0682 26.9855 15.4739 25.759 16.4773 25.2491C17.4806 24.7392 18.714 25.1414 19.2239 26.1448C19.7338 27.1481 19.3351 28.3884 18.3317 28.8983Z" fill="#85A0FF"/>
<path d="M4.02737 29.3498C3.14772 29.7968 2.0698 29.4454 1.62277 28.5657C1.17574 27.6861 1.52724 26.6081 2.40688 26.1611C3.28653 25.7141 4.36445 26.0656 4.81148 26.9452C5.25852 27.8249 4.90701 28.9028 4.02737 29.3498Z" fill="#85A0FF"/>
<path d="M12.1848 32.5928C11.6831 32.8477 11.0647 32.6518 10.8063 32.1433C10.5478 31.6347 10.7472 31.0232 11.2558 30.7648C11.7643 30.5063 12.3758 30.7057 12.6343 31.2143C12.8927 31.7228 12.6933 32.3343 12.1848 32.5928Z" fill="#95FCFC"/>
<path d="M20.8734 32.1982C20.2412 32.5195 19.4742 32.2694 19.1529 31.6371C18.8316 31.0049 19.0817 30.2379 19.7139 29.9166C20.3462 29.5953 21.1132 29.8454 21.4345 30.4776C21.7558 31.1099 21.5057 31.8769 20.8734 32.1982Z" fill="#85A0FF"/>
<path d="M24.0434 27.7164C23.5417 27.9713 22.9233 27.7754 22.6649 27.2668C22.4065 26.7583 22.6059 26.1468 23.1144 25.8883C23.623 25.6299 24.2345 25.8293 24.4929 26.3378C24.7514 26.8464 24.552 27.4579 24.0434 27.7164Z" fill="#85A0FF"/>
<path d="M31.5352 19.3175C31.1572 19.5096 30.6908 19.3575 30.5022 18.9864C30.3136 18.6153 30.4622 18.142 30.8402 17.9499C31.2181 17.7578 31.6845 17.9099 31.8766 18.2879C32.0687 18.6659 31.9131 19.1254 31.5352 19.3175Z" fill="#95FCFC"/>
<path d="M27.9153 24.5986C27.2831 24.9199 26.5161 24.6698 26.1948 24.0376C25.8735 23.4053 26.1236 22.6384 26.7558 22.3171C27.3881 21.9957 28.1551 22.2459 28.4764 22.8781C28.7977 23.5103 28.5476 24.2773 27.9153 24.5986Z" fill="#85A0FF"/>
<path d="M35.407 16.1997C34.9054 16.4547 34.287 16.2588 34.0285 15.7502C33.7701 15.2417 33.9695 14.6302 34.478 14.3717C34.9866 14.1133 35.5981 14.3127 35.8565 14.8212C36.115 15.3298 35.9156 15.9413 35.407 16.1997Z" fill="#85A0FF"/>
<path d="M25.8007 16.4901C26.5567 16.1059 27.4791 16.4067 27.8633 17.1627C28.2475 17.9186 27.9467 18.8411 27.1907 19.2252C26.4348 19.6094 25.5123 19.3086 25.1281 18.5527C24.744 17.7967 25.0448 16.8743 25.8007 16.4901Z" fill="#95FCFC"/>
<path d="M29.4315 12.3534C29.9331 12.0985 30.5515 12.2944 30.81 12.8029C31.0684 13.3115 30.869 13.923 30.3605 14.1815C29.8519 14.4399 29.2404 14.2405 28.982 13.7319C28.7235 13.2234 28.9229 12.6119 29.4315 12.3534Z" fill="#95FCFC"/>
<path d="M152.531 97C151.99 97 151.849 96.6562 152.109 95.9688L159.891 75.5469C160.13 74.9115 160.474 74.5938 160.922 74.5938H163.109C163.557 74.5938 163.901 74.9115 164.141 75.5469L171.922 95.9688C172.182 96.6562 172.042 97 171.5 97H169.906C169.354 97 168.979 96.7448 168.781 96.2344L166.828 91.0625H157.203L155.25 96.2344C155.052 96.7448 154.677 97 154.125 97H152.531ZM158.188 88.5H165.844L163.453 82.25C163.234 81.6667 163.016 81.0208 162.797 80.3125C162.589 79.6042 162.339 78.599 162.047 77.2969H161.984C161.693 78.599 161.438 79.6042 161.219 80.3125C161.01 81.0208 160.797 81.6667 160.578 82.25L158.188 88.5ZM175.172 97C174.703 97 174.469 96.7656 174.469 96.2969V81.2969C174.469 80.8281 174.703 80.5938 175.172 80.5938H176.484C176.953 80.5938 177.188 80.8281 177.188 81.2969V82.5469H177.25C177.927 81.7969 178.656 81.2396 179.438 80.875C180.219 80.5104 181.193 80.3281 182.359 80.3281C184.255 80.3281 185.615 80.8646 186.438 81.9375C187.271 83 187.688 84.4583 187.688 86.3125V96.2969C187.688 96.7656 187.453 97 186.984 97H185.641C185.172 97 184.938 96.7656 184.938 96.2969V87.0625C184.938 85.0208 184.599 83.7292 183.922 83.1875C183.245 82.6354 182.385 82.3594 181.344 82.3594C179.99 82.3594 178.964 82.7656 178.266 83.5781C177.568 84.3802 177.219 85.7604 177.219 87.7188V96.2969C177.219 96.7656 176.984 97 176.516 97H175.172ZM191.297 82.6562C190.828 82.6562 190.594 82.474 190.594 82.1094V81.1406C190.594 80.776 190.828 80.5938 191.297 80.5938H193.141V79.1875C193.141 78.9792 193.193 78.7812 193.297 78.5938L194.391 76.6094C194.589 76.2448 194.75 76.0625 194.875 76.0625H195.422C195.734 76.0625 195.891 76.2448 195.891 76.6094V80.5938H199.219C199.688 80.5938 199.922 80.776 199.922 81.1406V82.1094C199.922 82.474 199.688 82.6562 199.219 82.6562H195.891V92.6094C195.891 93.7031 196.052 94.4167 196.375 94.75C196.708 95.0729 197.104 95.2344 197.562 95.2344C197.917 95.2344 198.339 95.1302 198.828 94.9219C199.328 94.7135 199.672 94.5365 199.859 94.3906C200.047 94.2448 200.193 94.2917 200.297 94.5312L200.812 95.7344C200.896 95.9427 200.833 96.1094 200.625 96.2344C200.219 96.474 199.625 96.7083 198.844 96.9375C198.062 97.1562 197.281 97.2656 196.5 97.2656C195.417 97.2656 194.583 96.875 194 96.0938C193.427 95.3125 193.141 94.2083 193.141 92.7812V82.6562H191.297ZM204.641 97C204.172 97 203.938 96.7656 203.938 96.2969V81.2969C203.938 80.8281 204.172 80.5938 204.641 80.5938H205.984C206.453 80.5938 206.688 80.8281 206.688 81.2969V96.2969C206.688 96.7656 206.453 97 205.984 97H204.641ZM204.641 77.625C204.172 77.625 203.938 77.3906 203.938 76.9219V75.5781C203.938 75.1094 204.172 74.875 204.641 74.875H205.984C206.453 74.875 206.688 75.1094 206.688 75.5781V76.9219C206.688 77.3906 206.453 77.625 205.984 77.625H204.641ZM211.828 97C211.359 97 211.125 96.7656 211.125 96.2969V81.2969C211.125 80.8281 211.359 80.5938 211.828 80.5938H213.141C213.609 80.5938 213.844 80.8281 213.844 81.2969V82.5469H213.906C214.583 81.7969 215.318 81.2396 216.109 80.875C216.901 80.5104 217.661 80.3281 218.391 80.3281C219.734 80.3281 220.766 80.6667 221.484 81.3438C222.214 82.0104 222.682 82.6823 222.891 83.3594H222.953C223.526 82.5052 224.25 81.7865 225.125 81.2031C226 80.6198 226.932 80.3281 227.922 80.3281C229.578 80.3281 230.828 80.8646 231.672 81.9375C232.516 83 232.938 84.4583 232.938 86.3125V96.2969C232.938 96.7656 232.703 97 232.234 97H230.891C230.422 97 230.188 96.7656 230.188 96.2969V87.2188C230.188 85.1771 229.932 83.8594 229.422 83.2656C228.911 82.6615 228.125 82.3594 227.062 82.3594C226.021 82.3594 225.151 82.8073 224.453 83.7031C223.755 84.5885 223.406 85.9271 223.406 87.7188V96.2969C223.406 96.7656 223.172 97 222.703 97H221.359C220.891 97 220.656 96.7656 220.656 96.2969V87.2188C220.656 85.1771 220.401 83.8594 219.891 83.2656C219.38 82.6615 218.594 82.3594 217.531 82.3594C216.49 82.3594 215.62 82.7656 214.922 83.5781C214.224 84.3802 213.875 85.7604 213.875 87.7188V96.2969C213.875 96.7656 213.641 97 213.172 97H211.828ZM238.047 97C237.578 97 237.344 96.7656 237.344 96.2969V81.2969C237.344 80.8281 237.578 80.5938 238.047 80.5938H239.391C239.859 80.5938 240.094 80.8281 240.094 81.2969V96.2969C240.094 96.7656 239.859 97 239.391 97H238.047ZM238.047 77.625C237.578 77.625 237.344 77.3906 237.344 76.9219V75.5781C237.344 75.1094 237.578 74.875 238.047 74.875H239.391C239.859 74.875 240.094 75.1094 240.094 75.5781V76.9219C240.094 77.3906 239.859 77.625 239.391 77.625H238.047ZM243.641 88.7969C243.641 86.349 244.245 84.3281 245.453 82.7344C246.672 81.1302 248.531 80.3281 251.031 80.3281C252.719 80.3281 254.005 80.6302 254.891 81.2344C255.786 81.8281 256.432 82.4375 256.828 83.0625C257.047 83.4062 257 83.6823 256.688 83.8906L255.703 84.5312C255.391 84.75 255.078 84.6094 254.766 84.1094C254.464 83.6302 254.036 83.2188 253.484 82.875C252.943 82.5312 252.125 82.3594 251.031 82.3594C249.604 82.3594 248.5 82.8854 247.719 83.9375C246.938 84.9896 246.547 86.6094 246.547 88.7969C246.547 90.9844 246.938 92.6042 247.719 93.6562C248.5 94.7083 249.604 95.2344 251.031 95.2344C252.188 95.2344 253.073 95.0156 253.688 94.5781C254.302 94.1302 254.75 93.6458 255.031 93.125C255.302 92.6354 255.609 92.4948 255.953 92.7031L257 93.3281C257.312 93.5156 257.359 93.7969 257.141 94.1719C256.88 94.6198 256.286 95.25 255.359 96.0625C254.443 96.8646 253 97.2656 251.031 97.2656C248.531 97.2656 246.672 96.4688 245.453 94.875C244.245 93.2708 243.641 91.2448 243.641 88.7969ZM261.266 97C260.797 97 260.562 96.7656 260.562 96.2969V81.2969C260.562 80.8281 260.797 80.5938 261.266 80.5938H262.578C263.047 80.5938 263.281 80.8281 263.281 81.2969V83.1719H263.344C263.844 82.2344 264.432 81.526 265.109 81.0469C265.786 80.5677 266.63 80.3281 267.641 80.3281C268.307 80.3281 268.776 80.3854 269.047 80.5C269.286 80.5938 269.375 80.75 269.312 80.9688L268.953 82.25C268.901 82.4375 268.766 82.5104 268.547 82.4688C268.182 82.3958 267.839 82.3594 267.516 82.3594C266.297 82.3594 265.292 82.9115 264.5 84.0156C263.708 85.1094 263.312 86.6042 263.312 88.5V96.2969C263.312 96.7656 263.078 97 262.609 97H261.266ZM270.953 88.7969C270.953 86.349 271.599 84.3281 272.891 82.7344C274.193 81.1302 276.094 80.3281 278.594 80.3281C281.094 80.3281 282.99 81.1302 284.281 82.7344C285.583 84.3281 286.234 86.349 286.234 88.7969C286.234 91.2448 285.583 93.2708 284.281 94.875C282.99 96.4688 281.094 97.2656 278.594 97.2656C276.094 97.2656 274.193 96.4688 272.891 94.875C271.599 93.2708 270.953 91.2448 270.953 88.7969ZM273.859 88.7969C273.859 90.9844 274.292 92.6042 275.156 93.6562C276.021 94.7083 277.167 95.2344 278.594 95.2344C280.021 95.2344 281.167 94.7083 282.031 93.6562C282.896 92.6042 283.328 90.9844 283.328 88.7969C283.328 86.6094 282.896 84.9896 282.031 83.9375C281.167 82.8854 280.021 82.3594 278.594 82.3594C277.167 82.3594 276.021 82.8854 275.156 83.9375C274.292 84.9896 273.859 86.6094 273.859 88.7969ZM290.484 97C290.016 97 289.781 96.7656 289.781 96.2969V74.6406C289.781 74.1719 290.016 73.9375 290.484 73.9375H291.828C292.297 73.9375 292.531 74.1719 292.531 74.6406V81.5938C292.531 81.9167 292.521 82.2344 292.5 82.5469H292.531C293.104 81.8594 293.75 81.3177 294.469 80.9219C295.188 80.526 296.146 80.3281 297.344 80.3281C299.427 80.3281 301.01 81.1823 302.094 82.8906C303.177 84.5885 303.719 86.5573 303.719 88.7969C303.719 91.0365 303.177 93.0104 302.094 94.7188C301.01 96.4167 299.427 97.2656 297.344 97.2656C296.146 97.2656 295.188 97.0677 294.469 96.6719C293.75 96.276 293.104 95.7344 292.531 95.0469H292.5L292.406 96.2969C292.375 96.7656 292.172 97 291.797 97H290.484ZM292.531 90.5938C292.531 92.1562 292.901 93.3229 293.641 94.0938C294.391 94.8542 295.328 95.2344 296.453 95.2344C298.036 95.2344 299.156 94.6406 299.812 93.4531C300.479 92.2656 300.812 90.7135 300.812 88.7969C300.812 86.8802 300.479 85.3281 299.812 84.1406C299.156 82.9531 298.036 82.3594 296.453 82.3594C295.328 82.3594 294.391 82.7448 293.641 83.5156C292.901 84.276 292.531 85.4375 292.531 87V90.5938ZM307.984 97C307.516 97 307.281 96.7656 307.281 96.2969V81.2969C307.281 80.8281 307.516 80.5938 307.984 80.5938H309.328C309.797 80.5938 310.031 80.8281 310.031 81.2969V96.2969C310.031 96.7656 309.797 97 309.328 97H307.984ZM307.984 77.625C307.516 77.625 307.281 77.3906 307.281 76.9219V75.5781C307.281 75.1094 307.516 74.875 307.984 74.875H309.328C309.797 74.875 310.031 75.1094 310.031 75.5781V76.9219C310.031 77.3906 309.797 77.625 309.328 77.625H307.984ZM313.578 92.625C313.578 90.7708 314.443 89.4115 316.172 88.5469C317.911 87.6823 320.505 87.1771 323.953 87.0312V85.9688C323.953 84.9896 323.729 84.1458 323.281 83.4375C322.844 82.7188 321.969 82.3594 320.656 82.3594C319.823 82.3594 319.156 82.4427 318.656 82.6094C318.156 82.7656 317.698 82.9792 317.281 83.25C316.875 83.5104 316.484 83.849 316.109 84.2656C315.828 84.5781 315.562 84.5938 315.312 84.3125L314.5 83.375C314.271 83.1146 314.349 82.8021 314.734 82.4375C315.286 81.9167 315.823 81.526 316.344 81.2656C316.865 81.0052 317.51 80.7865 318.281 80.6094C319.062 80.4219 319.854 80.3281 320.656 80.3281C322.833 80.3281 324.385 80.8906 325.312 82.0156C326.24 83.1302 326.703 84.6615 326.703 86.6094V96.2969C326.703 96.7656 326.469 97 326 97H324.594C324.188 97 323.984 96.7656 323.984 96.2969V95.5312H323.953C323.13 96.1771 322.323 96.6302 321.531 96.8906C320.75 97.1406 319.875 97.2656 318.906 97.2656C317.198 97.2656 315.88 96.8594 314.953 96.0469C314.036 95.224 313.578 94.0833 313.578 92.625ZM316.422 92.6875C316.422 93.3333 316.557 93.8542 316.828 94.25C317.099 94.6354 317.474 94.8854 317.953 95C318.432 95.1042 318.932 95.1562 319.453 95.1562C320.255 95.1562 321.016 95.0781 321.734 94.9219C322.453 94.7656 323.193 94.3542 323.953 93.6875V89.0781C321.849 89.2344 320.349 89.4271 319.453 89.6562C318.557 89.875 317.828 90.2604 317.266 90.8125C316.703 91.3542 316.422 91.9792 316.422 92.6875ZM331.859 97C331.391 97 331.156 96.7656 331.156 96.2969V76.7969C331.156 76.5885 331.208 76.3906 331.312 76.2031L332.406 74.2188C332.604 73.8542 332.766 73.6719 332.891 73.6719H333.438C333.75 73.6719 333.906 73.8542 333.906 74.2188V96.2969C333.906 96.7656 333.672 97 333.203 97H331.859ZM154.438 143C153.917 143 153.656 142.714 153.656 142.141V121.453C153.656 120.88 153.917 120.594 154.438 120.594H161.984C164.995 120.594 167.172 121.156 168.516 122.281C169.87 123.406 170.547 124.891 170.547 126.734C170.547 128.359 170 129.724 168.906 130.828C167.823 131.932 166.276 132.568 164.266 132.734V132.766C165.328 133.557 166.031 134.161 166.375 134.578C166.719 134.984 167.104 135.536 167.531 136.234L171.062 141.969C171.49 142.656 171.396 143 170.781 143H169C168.51 143 168.146 142.797 167.906 142.391L164.656 136.812C164.188 136.01 163.516 135.224 162.641 134.453C161.766 133.682 160.677 133.297 159.375 133.297H156.656V142.141C156.656 142.714 156.396 143 155.875 143H154.438ZM156.656 130.734H161.172C163.203 130.734 164.766 130.469 165.859 129.938C166.953 129.396 167.5 128.266 167.5 126.547C167.5 125.234 167 124.344 166 123.875C165 123.396 163.641 123.156 161.922 123.156H156.656V130.734ZM174.109 134.797C174.109 132.214 174.755 130.156 176.047 128.625C177.339 127.094 179.188 126.328 181.594 126.328C183.594 126.328 185.25 127.031 186.562 128.438C187.885 129.833 188.547 132.068 188.547 135.141C188.547 135.609 188.333 135.844 187.906 135.844H177.016C177.193 137.854 177.734 139.255 178.641 140.047C179.547 140.828 180.573 141.219 181.719 141.219C182.927 141.219 183.854 141.016 184.5 140.609C185.146 140.203 185.62 139.802 185.922 139.406C186.255 138.969 186.578 138.885 186.891 139.156L187.812 139.953C188.052 140.161 188.052 140.448 187.812 140.812C187.615 141.115 187.047 141.599 186.109 142.266C185.182 142.932 183.719 143.266 181.719 143.266C179.115 143.266 177.193 142.5 175.953 140.969C174.724 139.438 174.109 137.38 174.109 134.797ZM176.953 133.812H185.781C185.74 132.354 185.365 131.078 184.656 129.984C183.948 128.88 182.906 128.328 181.531 128.328C180.323 128.328 179.297 128.734 178.453 129.547C177.609 130.349 177.109 131.771 176.953 133.812ZM191.516 141.469C191.193 141.167 191.125 140.885 191.312 140.625L192.016 139.641C192.245 139.328 192.583 139.344 193.031 139.688C193.646 140.156 194.328 140.531 195.078 140.812C195.839 141.094 196.703 141.234 197.672 141.234C198.245 141.234 198.755 141.167 199.203 141.031C199.651 140.885 200.042 140.62 200.375 140.234C200.719 139.849 200.891 139.333 200.891 138.688C200.891 138.312 200.807 137.958 200.641 137.625C200.484 137.292 200.234 137.026 199.891 136.828C199.557 136.62 199.229 136.458 198.906 136.344C198.375 136.146 197.844 135.984 197.312 135.859C196.792 135.724 196.104 135.521 195.25 135.25C194.677 135.073 194.135 134.823 193.625 134.5C193.115 134.167 192.667 133.719 192.281 133.156C191.906 132.594 191.719 131.818 191.719 130.828C191.719 129.818 192.026 128.948 192.641 128.219C193.255 127.49 194.026 126.995 194.953 126.734C195.88 126.464 196.781 126.328 197.656 126.328C198.948 126.328 199.984 126.479 200.766 126.781C201.557 127.073 202.24 127.422 202.812 127.828C203.146 128.068 203.193 128.344 202.953 128.656L202.25 129.594C202.031 129.896 201.693 129.885 201.234 129.562C200.849 129.292 200.302 129.036 199.594 128.797C198.885 128.557 198.266 128.438 197.734 128.438C197.078 128.438 196.516 128.51 196.047 128.656C195.578 128.802 195.198 129.052 194.906 129.406C194.615 129.76 194.469 130.177 194.469 130.656C194.469 131.021 194.526 131.349 194.641 131.641C194.755 131.922 194.969 132.182 195.281 132.422C195.594 132.661 196.031 132.854 196.594 133C197.469 133.229 198.266 133.438 198.984 133.625C199.714 133.812 200.37 134.042 200.953 134.312C201.714 134.667 202.297 135.057 202.703 135.484C203.12 135.911 203.406 136.375 203.562 136.875C203.719 137.365 203.797 137.911 203.797 138.516C203.797 139.63 203.464 140.573 202.797 141.344C202.141 142.115 201.406 142.63 200.594 142.891C199.781 143.141 198.802 143.266 197.656 143.266C196.104 143.266 194.771 143.047 193.656 142.609C192.552 142.161 191.839 141.781 191.516 141.469ZM207.609 143C207.141 143 206.906 142.766 206.906 142.297V127.297C206.906 126.828 207.141 126.594 207.609 126.594H208.953C209.422 126.594 209.656 126.828 209.656 127.297V142.297C209.656 142.766 209.422 143 208.953 143H207.609ZM207.609 123.625C207.141 123.625 206.906 123.391 206.906 122.922V121.578C206.906 121.109 207.141 120.875 207.609 120.875H208.953C209.422 120.875 209.656 121.109 209.656 121.578V122.922C209.656 123.391 209.422 123.625 208.953 123.625H207.609ZM213.453 141.469C213.13 141.167 213.062 140.885 213.25 140.625L213.953 139.641C214.182 139.328 214.521 139.344 214.969 139.688C215.583 140.156 216.266 140.531 217.016 140.812C217.776 141.094 218.641 141.234 219.609 141.234C220.182 141.234 220.693 141.167 221.141 141.031C221.589 140.885 221.979 140.62 222.312 140.234C222.656 139.849 222.828 139.333 222.828 138.688C222.828 138.312 222.745 137.958 222.578 137.625C222.422 137.292 222.172 137.026 221.828 136.828C221.495 136.62 221.167 136.458 220.844 136.344C220.312 136.146 219.781 135.984 219.25 135.859C218.729 135.724 218.042 135.521 217.188 135.25C216.615 135.073 216.073 134.823 215.562 134.5C215.052 134.167 214.604 133.719 214.219 133.156C213.844 132.594 213.656 131.818 213.656 130.828C213.656 129.818 213.964 128.948 214.578 128.219C215.193 127.49 215.964 126.995 216.891 126.734C217.818 126.464 218.719 126.328 219.594 126.328C220.885 126.328 221.922 126.479 222.703 126.781C223.495 127.073 224.177 127.422 224.75 127.828C225.083 128.068 225.13 128.344 224.891 128.656L224.188 129.594C223.969 129.896 223.63 129.885 223.172 129.562C222.786 129.292 222.24 129.036 221.531 128.797C220.823 128.557 220.203 128.438 219.672 128.438C219.016 128.438 218.453 128.51 217.984 128.656C217.516 128.802 217.135 129.052 216.844 129.406C216.552 129.76 216.406 130.177 216.406 130.656C216.406 131.021 216.464 131.349 216.578 131.641C216.693 131.922 216.906 132.182 217.219 132.422C217.531 132.661 217.969 132.854 218.531 133C219.406 133.229 220.203 133.438 220.922 133.625C221.651 133.812 222.307 134.042 222.891 134.312C223.651 134.667 224.234 135.057 224.641 135.484C225.057 135.911 225.344 136.375 225.5 136.875C225.656 137.365 225.734 137.911 225.734 138.516C225.734 139.63 225.401 140.573 224.734 141.344C224.078 142.115 223.344 142.63 222.531 142.891C221.719 143.141 220.74 143.266 219.594 143.266C218.042 143.266 216.708 143.047 215.594 142.609C214.49 142.161 213.776 141.781 213.453 141.469ZM228.047 128.656C227.578 128.656 227.344 128.474 227.344 128.109V127.141C227.344 126.776 227.578 126.594 228.047 126.594H229.891V125.188C229.891 124.979 229.943 124.781 230.047 124.594L231.141 122.609C231.339 122.245 231.5 122.062 231.625 122.062H232.172C232.484 122.062 232.641 122.245 232.641 122.609V126.594H235.969C236.438 126.594 236.672 126.776 236.672 127.141V128.109C236.672 128.474 236.438 128.656 235.969 128.656H232.641V138.609C232.641 139.703 232.802 140.417 233.125 140.75C233.458 141.073 233.854 141.234 234.312 141.234C234.667 141.234 235.089 141.13 235.578 140.922C236.078 140.714 236.422 140.536 236.609 140.391C236.797 140.245 236.943 140.292 237.047 140.531L237.562 141.734C237.646 141.943 237.583 142.109 237.375 142.234C236.969 142.474 236.375 142.708 235.594 142.938C234.812 143.156 234.031 143.266 233.25 143.266C232.167 143.266 231.333 142.875 230.75 142.094C230.177 141.312 229.891 140.208 229.891 138.781V128.656H228.047ZM239.797 138.625C239.797 136.771 240.661 135.411 242.391 134.547C244.13 133.682 246.724 133.177 250.172 133.031V131.969C250.172 130.99 249.948 130.146 249.5 129.438C249.062 128.719 248.188 128.359 246.875 128.359C246.042 128.359 245.375 128.443 244.875 128.609C244.375 128.766 243.917 128.979 243.5 129.25C243.094 129.51 242.703 129.849 242.328 130.266C242.047 130.578 241.781 130.594 241.531 130.312L240.719 129.375C240.49 129.115 240.568 128.802 240.953 128.438C241.505 127.917 242.042 127.526 242.562 127.266C243.083 127.005 243.729 126.786 244.5 126.609C245.281 126.422 246.073 126.328 246.875 126.328C249.052 126.328 250.604 126.891 251.531 128.016C252.458 129.13 252.922 130.661 252.922 132.609V142.297C252.922 142.766 252.688 143 252.219 143H250.812C250.406 143 250.203 142.766 250.203 142.297V141.531H250.172C249.349 142.177 248.542 142.63 247.75 142.891C246.969 143.141 246.094 143.266 245.125 143.266C243.417 143.266 242.099 142.859 241.172 142.047C240.255 141.224 239.797 140.083 239.797 138.625ZM242.641 138.688C242.641 139.333 242.776 139.854 243.047 140.25C243.318 140.635 243.693 140.885 244.172 141C244.651 141.104 245.151 141.156 245.672 141.156C246.474 141.156 247.234 141.078 247.953 140.922C248.672 140.766 249.411 140.354 250.172 139.688V135.078C248.068 135.234 246.568 135.427 245.672 135.656C244.776 135.875 244.047 136.26 243.484 136.812C242.922 137.354 242.641 137.979 242.641 138.688ZM258.078 143C257.609 143 257.375 142.766 257.375 142.297V127.297C257.375 126.828 257.609 126.594 258.078 126.594H259.391C259.859 126.594 260.094 126.828 260.094 127.297V128.547H260.156C260.833 127.797 261.562 127.24 262.344 126.875C263.125 126.51 264.099 126.328 265.266 126.328C267.161 126.328 268.521 126.865 269.344 127.938C270.177 129 270.594 130.458 270.594 132.312V142.297C270.594 142.766 270.359 143 269.891 143H268.547C268.078 143 267.844 142.766 267.844 142.297V133.062C267.844 131.021 267.505 129.729 266.828 129.188C266.151 128.635 265.292 128.359 264.25 128.359C262.896 128.359 261.87 128.766 261.172 129.578C260.474 130.38 260.125 131.76 260.125 133.719V142.297C260.125 142.766 259.891 143 259.422 143H258.078ZM274.109 134.797C274.109 132.349 274.714 130.328 275.922 128.734C277.141 127.13 279 126.328 281.5 126.328C283.188 126.328 284.474 126.63 285.359 127.234C286.255 127.828 286.901 128.438 287.297 129.062C287.516 129.406 287.469 129.682 287.156 129.891L286.172 130.531C285.859 130.75 285.547 130.609 285.234 130.109C284.932 129.63 284.505 129.219 283.953 128.875C283.411 128.531 282.594 128.359 281.5 128.359C280.073 128.359 278.969 128.885 278.188 129.938C277.406 130.99 277.016 132.609 277.016 134.797C277.016 136.984 277.406 138.604 278.188 139.656C278.969 140.708 280.073 141.234 281.5 141.234C282.656 141.234 283.542 141.016 284.156 140.578C284.771 140.13 285.219 139.646 285.5 139.125C285.771 138.635 286.078 138.495 286.422 138.703L287.469 139.328C287.781 139.516 287.828 139.797 287.609 140.172C287.349 140.62 286.755 141.25 285.828 142.062C284.911 142.865 283.469 143.266 281.5 143.266C279 143.266 277.141 142.469 275.922 140.875C274.714 139.271 274.109 137.245 274.109 134.797ZM290.141 134.797C290.141 132.214 290.786 130.156 292.078 128.625C293.37 127.094 295.219 126.328 297.625 126.328C299.625 126.328 301.281 127.031 302.594 128.438C303.917 129.833 304.578 132.068 304.578 135.141C304.578 135.609 304.365 135.844 303.938 135.844H293.047C293.224 137.854 293.766 139.255 294.672 140.047C295.578 140.828 296.604 141.219 297.75 141.219C298.958 141.219 299.885 141.016 300.531 140.609C301.177 140.203 301.651 139.802 301.953 139.406C302.286 138.969 302.609 138.885 302.922 139.156L303.844 139.953C304.083 140.161 304.083 140.448 303.844 140.812C303.646 141.115 303.078 141.599 302.141 142.266C301.214 142.932 299.75 143.266 297.75 143.266C295.146 143.266 293.224 142.5 291.984 140.969C290.755 139.438 290.141 137.38 290.141 134.797ZM292.984 133.812H301.812C301.771 132.354 301.396 131.078 300.688 129.984C299.979 128.88 298.938 128.328 297.562 128.328C296.354 128.328 295.328 128.734 294.484 129.547C293.641 130.349 293.141 131.771 292.984 133.812Z" fill="black"/>
<circle cx="94" cy="20" r="4" fill="#B9E0F5"/>
<ellipse cx="7" cy="106.5" rx="4" ry="3.5" fill="#558FFF"/>
<circle cx="114" cy="191" r="4" fill="#275783"/>
<ellipse cx="58.6699" cy="105.951" rx="6.16699" ry="14.6466" transform="rotate(-3.5946 58.6699 105.951)" fill="#558FFF"/>
<circle cx="102.524" cy="99.0988" r="20.3853" fill="#1BE33B"/>
<line x1="101.774" y1="78.7135" x2="101.774" y2="67.0648" stroke="#1BE33B" stroke-width="1.5"/>
<line x1="113.155" y1="82.1328" x2="118.001" y2="74.1262" stroke="#1BE33B" stroke-width="1.5"/>
<line x1="119.028" y1="87.8443" x2="125.428" y2="83.8994" stroke="#1BE33B" stroke-width="1.5"/>
<line x1="122.909" y1="98.3488" x2="131.646" y2="98.3488" stroke="#1BE33B" stroke-width="1.5"/>
<line x1="119.842" y1="108.831" x2="133.116" y2="115.995" stroke="#1BE33B" stroke-width="1.5"/>
<line x1="113.433" y1="116.361" x2="118.279" y2="127.739" stroke="#1BE33B" stroke-width="1.5"/>
<line x1="102.303" y1="119.484" x2="102.303" y2="130.162" stroke="#1BE33B" stroke-width="1.5"/>
<line x1="92.6247" y1="117.185" x2="82.7217" y2="127.088" stroke="#1BE33B" stroke-width="1.5"/>
<line x1="83.3303" y1="105.64" x2="68.506" y2="110.208" stroke="#1BE33B" stroke-width="1.5"/>
<line x1="82.6471" y1="94.7521" x2="67.2659" y2="85.4812" stroke="#1BE33B" stroke-width="1.5"/>
<line x1="90.4892" y1="83.0293" x2="83.1146" y2="75.0227" stroke="#1BE33B" stroke-width="1.5"/>
<circle cx="117.57" cy="74.3452" r="1.45609" fill="#1BE33B"/>
<circle cx="125.336" cy="84.0525" r="4.36828" fill="#1BE33B"/>
<circle cx="135.044" cy="117.057" r="5.33901" fill="#1BE33B"/>
<circle cx="70.9753" cy="109.292" r="3.39755" fill="#1BE33B"/>
<circle cx="65.151" cy="84.0525" r="3.39755" fill="#1BE33B"/>
<circle cx="82.6241" cy="74.3452" r="2.42682" fill="#1BE33B"/>
<circle cx="101.553" cy="66.094" r="4.85365" fill="#1BE33B"/>
<circle cx="83.5948" cy="125.794" r="2.42682" fill="#1BE33B"/>
<circle cx="102.039" cy="129.677" r="1.45609" fill="#1BE33B"/>
<circle cx="117.085" cy="125.309" r="2.91219" fill="#1BE33B"/>
<circle cx="131.161" cy="98.6135" r="1.45609" fill="#1BE33B"/>
<ellipse cx="99" cy="112.5" rx="4" ry="4.5" fill="#96E8A3"/>
<ellipse cx="94.5" cy="97" rx="8.5" ry="9" fill="#96E8A3"/>
<ellipse cx="109.5" cy="108" rx="3.5" ry="3" fill="#96E8A3"/>
<circle cx="99.5" cy="65.5" r="1.5" fill="#96E8A3"/>
<circle cx="116.5" cy="125.5" r="1.5" fill="#96E8A3"/>
</svg>
